<?xml version="1.0" encoding="UTF-8" standalone="no"?>
<!DOCTYPE svg PUBLIC "-//W3C//DTD SVG 1.1//EN" "http://www.w3.org/Graphics/SVG/1.1/DTD/svg11.dtd">
<svg width="100%" height="100%" viewBox="0 0 3000 1000" version="1.1" xmlns="http://www.w3.org/2000/svg" xmlns:xlink="http://www.w3.org/1999/xlink" xml:space="preserve" xmlns:serif="http://www.serif.com/" style="fill-rule:evenodd;clip-rule:evenodd;stroke-linejoin:round;stroke-miterlimit:2;">
    <g transform="matrix(0.1,0,0,-0.1,1532.89,1075.82)">
        <path d="M-15342.8,10428C-15349.9,10414.4 -14983.4,10482.1 -14743.4,10376C-14601.9,10313.4 -14575.5,10096.7 -14448.7,9998.71C-14309.6,9891.1 -14385.7,9722.51 -14255.8,9590.74C-14069.9,9402.3 -14070.5,9031.57 -13909.2,8911.58C-13708.9,8762.6 -13499.4,8930.56 -13463.7,8933.57C-13376.3,8940.94 -13008.4,9242.84 -12926.6,9149.61C-12556.4,8727.54 -12306.3,7625.49 -11941,7168.05C-11645,6797.34 -11403.2,6270.96 -11254.2,5862.41C-11139.9,5549.3 -11078.5,5356.03 -10952.4,5107.71C-10912.4,5028.99 -10866.6,4898.12 -10809.6,4816.48C-10122.6,3831.22 -10630.2,3815.68 -10110.8,3164.43C-9658.38,2597.16 -9038.42,2211.41 -9002.84,2213.09C-8895.84,2219.09 -15100.1,2030.18 -15341.1,2030.18C-15509.1,2030.18 -15309.8,10432 -15342.8,10428Z" style="fill:rgb(20,20,20);fill-rule:nonzero;"/>
    </g>
    <g transform="matrix(-0.105804,0,0,-0.105804,1392.11,1102.16)">
        <path d="M-15310.3,10415.5C-15317.4,10401.9 -15410.2,10418.3 -15170.1,10312.1C-15028.6,10249.6 -14781.3,9987.22 -14654.6,9889.19C-14515.4,9781.58 -14629.3,9705.96 -14499.3,9574.18C-14313.5,9385.75 -14384,9113.12 -14204.3,9203.14C-13920.2,9345.38 -13716.8,9364.67 -13684.5,9380.28C-13336.1,9548.82 -13165.2,9871.65 -12977.6,9943.02C-12903.5,9971.2 -12651.3,9744.59 -12422.2,9409.84C-12399.1,9376.09 -12390.2,9339.53 -12109.1,9272.81C-11881.5,9218.81 -11817.1,8599.89 -11625.8,8531.23C-11361.2,8436.24 -11479.8,8235.7 -11281.6,8168.88C-11026.8,8083 -10985.9,8171.03 -10964.2,8146.27C-10594,7724.19 -10895.8,7929.53 -10530.5,7472.09C-10393,7299.95 -10400.7,7215.52 -10371.8,7173.36C-10338.5,7124.73 -10303.8,7075.23 -10195.6,6901.23C-10074.2,6705.97 -9959.22,6376.62 -9794.63,6146.88C-9720.65,6043.6 -9603.3,5984.86 -9563.81,5908.03C-9545.77,5872.92 -9505.56,5805.77 -9479.48,5726.62C-9460.23,5668.18 -9458.01,5603.45 -9429.82,5538.96C-9341.73,5337.42 -9221.55,5134.65 -9193.82,5085.11C-8643.63,4102.51 -8806.55,4283.14 -8379.08,3568.19C-8056.47,3028.62 -7661.82,2249.96 -7626.23,2251.63C-7586.17,2253.88 -9845.13,2164.92 -10924.7,2093.71C-10955.1,2091.71 -10959.6,2073.27 -10987.3,2070.49C-11098.2,2059.35 -11218,2059.45 -11345.8,2051.28C-11630.9,2033.07 -11931.8,2032.03 -12225.7,2012.46C-12407.3,2000.36 -12573.7,1981.72 -12752.5,1969.43C-14048.3,1880.4 -15220.6,1798.85 -15322,1798.85C-15490,1798.85 -15277.3,10419.5 -15310.3,10415.5Z" style="fill:rgb(20,20,20);fill-rule:nonzero;"/>
    </g>
    <path d="M59.662,36.527C58.619,36.882 45.519,33.106 31.555,32.942C17.21,32.773 1.936,36.238 -3.512,38.369C-23.138,46.046 -26.038,88.799 -4.17,110.778C12.88,127.915 50.473,129.914 71.186,109.162C75.734,104.605 90.56,119.281 90.982,119.763C96.804,126.396 104.77,125.981 110.627,159.736C110.938,161.529 111.363,161.394 116.779,181.636C123.83,207.988 162.253,210.65 177.442,218.096C186.512,222.543 189.587,219.142 201.834,237.513C205.051,242.338 205.25,242.13 207.523,247.423C213.932,262.349 233.946,261.605 247.357,270.629C248.17,271.176 266.364,279.271 272.412,270.86C289.48,247.124 272.971,245.012 266.702,213.059C263.61,197.301 264.549,196.733 257.01,187.314C249.475,177.9 252.696,162.032 232.105,158.802C226.152,157.868 218.507,165.992 208.84,173.143C195.528,182.991 195.431,187.251 171.562,187.037C161.457,186.946 159.66,197.494 147.175,186.433C128.196,169.618 131.216,165.614 126.415,164.523C120.031,163.072 121.243,142.754 117.12,136.063C109.06,122.985 110.735,122.111 102.095,109.3C97.145,101.961 100.669,100.707 96.771,92.464C94.115,86.845 64.995,39.804 59.662,36.527Z" style="fill:white;"/>
    <g transform="matrix(1,0,0,1,92.6239,11.0534)">
        <path d="M2614.37,94.106C2618.6,91.97 2629.38,70.816 2632.81,68.555C2638.91,64.524 2638.66,64.205 2645.1,60.783C2653.97,56.076 2661.34,46.307 2666.7,42.401C2667.95,41.494 2673.2,37.114 2674.12,38.417C2686.41,55.772 2690.6,55.874 2694,61.106C2696.6,65.093 2720.72,83.436 2745.35,103.389C2746.64,104.435 2759.12,98.754 2760.48,99.866C2768.81,106.624 2790.15,112.996 2793.34,120.566C2795.63,125.997 2780.96,133.811 2780.8,134.625C2777.14,153.071 2769.63,153.336 2748.57,140.734C2744.75,138.444 2747.17,144.498 2745.85,148.88C2744.39,153.756 2739.18,156.99 2734.48,153.35C2722.04,143.72 2713.92,126.153 2715.19,133.192C2718.25,150.269 2690.89,133.15 2689.7,147.242C2687.7,171.011 2684.38,189.383 2676.57,199.381C2663.59,215.998 2643.53,209.214 2635.67,163.666C2633.17,149.224 2612.68,112.823 2614.37,94.106Z" style="fill:white;"/>
    </g>
    <g transform="matrix(0.64337,0,0,0.64337,-863.556,63.1713)">
        <g transform="matrix(0.177889,0.0629963,0.0629963,-0.177889,1638.96,1665.25)">
            <path d="M1495,2403C1441,2355 1315,2259 1261,2226C1120,2137 1002,2094 766,2044C608,2011 567,2000 599,2000C635,2000 906,2054 980,2077C1083,2107 1192,2158 1280,2215C1358,2266 1562,2444 1538,2440C1536,2439 1517,2423 1495,2403Z" style="fill:rgb(114,113,113);fill-rule:nonzero;"/>
        </g>
        <g transform="matrix(0.177889,0.0629963,0.0629963,-0.177889,1638.96,1665.25)">
            <path d="M485,1970C472,1964 470,1961 480,1961C488,1961 502,1965 510,1970C528,1982 512,1982 485,1970Z" style="fill:rgb(114,113,113);fill-rule:nonzero;"/>
        </g>
        <g transform="matrix(0.177889,0.0629963,0.0629963,-0.177889,1638.96,1665.25)">
            <path d="M335,1902C297,1882 238,1839 205,1806L145,1748L198,1792C227,1817 287,1858 330,1884C374,1910 410,1933 410,1936C410,1942 410,1942 335,1902Z" style="fill:rgb(114,113,113);fill-rule:nonzero;"/>
        </g>
    </g>
    <g transform="matrix(-0.64337,0,0,0.64337,2879.5,-6.56822)">
        <g transform="matrix(0.449413,0.00973484,0.00973484,-0.449413,2162.99,1872.81)">
            <path d="M4213,3700C4187,3693 3452,2110 3602,2256C3698,2349 3731,2374 3810,2414C3959,2489 4025,2542 4309,2816C4378,2882 4467,2961 4505,2992C4594,3064 4710,3192 4759,3272C4791,3325 4807,3341 4860,3370C4917,3401 4930,3414 4977,3490C5006,3537 5050,3598 5075,3627L5120,3679L5120,3822L5119,3965L5095,3937C5049,3885 4992,3775 4971,3697C4947,3608 4929,3570 4903,3549C4887,3536 4886,3537 4898,3551C4905,3560 4926,3614 4945,3671L4980,3774L4935,3730C4906,3701 4885,3671 4879,3645C4829,3459 4823,3445 4768,3404C4711,3361 4670,3298 4626,3183C4590,3089 4563,3055 4595,3145C4644,3279 4758,3482 4811,3530C4830,3548 4844,3574 4855,3620C4869,3678 4878,3692 4935,3750C4992,3807 5020,3851 5020,3881C5020,3897 4994,3891 4944,3863L4895,3836L4928,3877C4969,3929 5067,4019 5097,4033C5122,4044 5098,4090 5108,4101C5126,4120 5134.63,4259.13 5115.63,4252.13C5108.63,4249.13 5090,4226 5090,4224C5090,4222 5078,4201 5064,4179C5041,4142 5036,4139 5012,4146C4965,4159 4841,4130 4841,4130L4806,4086C4786,4063 4770,4039 4770,4034C4770,4029 4758,4007 4744,3986L4718,3948C4718,3948 4730,3925 4686,3861C4671,3840 4651,3794 4641,3757C4622,3688 4586,3631 4544,3604C4522,3589 4518,3589 4495,3604C4475,3617 4465,3618 4449,3610C4432,3600 4416,3607 4345,3656L4261,3713L4213,3700ZM4994,4109C5018,4090 5025,4089 5047,4099C5070,4110 5072,4109 5060,4096C5053,4086 5031,4080 5006,4080L4965,4079L4989,4059C5002,4048 5020,4035 5029,4030C5062,4012 5029,4008 4994,4027C4953,4048 4911,4096 4945,4084C4960,4078 4961,4080 4951,4098C4945,4109 4930,4121 4918,4123C4903,4126 4908,4128 4931,4129C4955,4130 4977,4122 4994,4109ZM4878,4030C4879,4007 4878,4007 4870,4025C4865,4036 4862,4061 4862,4080L4862,4115L4870,4085C4874,4069 4878,4044 4878,4030ZM4819,4033C4792,3970 4775,3953 4795,4009C4809,4049 4827,4080 4836,4080C4838,4080 4830,4059 4819,4033ZM4116,3201C4084,3149 4115,3297 4144,3270C4149,3265 4136,3235 4116,3201ZM4750,3931C4745,3920 4740,3899 4740,3885C4740,3871 4729,3844 4715,3826C4702,3809 4688,3774 4684,3750C4672,3667 4590,3558 4530,3545C4456,3529 4406,3492 4359,3419C4335,3381 4315,3365 4252,3333L4175,3295L4125,3328C4098,3347 4225,3670 4206,3631C4184,3589 4235,3577 4235,3577L4238,3624C4242,3682 4260,3685 4261,3628L4263,3585L4275,3665L4303,3637C4319,3622 4336,3612 4342,3616C4347,3619 4365,3613 4380,3601C4397,3589 4422,3581 4442,3582C4460,3583 4486,3577 4499,3571C4536,3551 4565,3566 4613,3629C4645,3672 4660,3704 4669,3747C4675,3780 4692,3822 4705,3840C4719,3859 4730,3884 4730,3896C4730,3925 4740,3950 4751,3950C4757,3950 4756,3942 4750,3931ZM5104,3838C5097,3813 5075,3773 5029,3695C4996,3641 4996,3641 5042,3773C5066,3842 5077,3860 5092,3860C5107,3860 5110,3855 5104,3838ZM4726,3734C4710,3659 4678,3561 4660,3533C4650,3517 4649,3517 4654,3535C4658,3552 4711,3740 4726,3793C4729,3803 4734,3810 4736,3807C4738,3805 4734,3772 4726,3734ZM4545,3470C4559,3447 4500,3217 4484,3233C4481,3235 4486,3252 4494,3271C4502,3290 4515,3340 4523,3382L4537,3458L4481,3432C4450,3419 4407,3390 4385,3369C4341,3327 4313,3315 4347,3353C4358,3365 4380,3397 4396,3423C4423,3468 4427,3470 4460,3465C4479,3462 4502,3464 4510,3470C4529,3482 4537,3482 4545,3470ZM4316,3278C4311,3242 4292,3194 4256,3130C4227,3078 4196,3013 4185,2985C4160,2916 4108,2799 4104,2803C4102,2804 4114,2844 4130,2890C4159,2972 4168,3030 4153,3030C4127,3029 4049,2994 4008,2964C3951,2922 3925,2861 3910,2737C3901,2654 3883,2580 3874,2580C3871,2580 3871,2588 3874,2598C3877,2607 3886,2669 3895,2734C3915,2894 3929,2921 4041,3010C4120,3073 4235,3198 4225,3209C4223,3211 4197,3195 4168,3174L4115,3135L4144,3185C4193,3271 4218,3298 4262,3313C4324,3335 4323,3335 4316,3278ZM4357,3218C4355,3205 4353,3215 4353,3240C4353,3265 4355,3275 4357,3263C4359,3250 4359,3230 4357,3218ZM4345,3140C4341,3117 4336,3101 4334,3103C4331,3105 4332,3126 4336,3149C4340,3172 4345,3189 4347,3186C4350,3183 4349,3163 4345,3140ZM3785,2673C3758,2594 3745,2570 3718,2550C3644,2494 3751,2605 3764,2649C3781,2707 3807,2770 3814,2770C3817,2770 3804,2726 3785,2673ZM3777,2548C3774,2540 3771,2543 3771,2554C3770,2565 3773,2571 3776,2567C3779,2564 3780,2555 3777,2548ZM3821,2529C3815,2505 3812,2501 3811,2517C3810,2541 3820,2573 3827,2567C3829,2564 3827,2547 3821,2529ZM3767,2508C3764,2500 3761,2503 3761,2514C3760,2525 3763,2531 3766,2527C3769,2524 3770,2515 3767,2508Z" style="fill:rgb(114,113,113);fill-rule:nonzero;"/>
        </g>
        <g transform="matrix(0.449413,0.00973484,0.00973484,-0.449413,2162.99,1872.81)">
            <path d="M4373,3530C4313,3521 4248,3486 4205,3439L4175,3406L4216,3438C4269,3479 4336,3509 4375,3511C4392,3511 4423,3517 4445,3525C4483,3537 4483,3538 4455,3538C4439,3538 4402,3534 4373,3530Z" style="fill:rgb(114,113,113);fill-rule:nonzero;"/>
        </g>
        <g transform="matrix(0.449413,0.00973484,0.00973484,-0.449413,2162.99,1872.81)">
            <path d="M5084,3615C5032,3549 4970,3445 4980,3442C4992,3438 5067,3489 5098,3523C5117,3543 5121,3556 5118,3601L5115,3654L5084,3615Z" style="fill:rgb(114,113,113);fill-rule:nonzero;"/>
        </g>
        <g transform="matrix(0.449413,0.00973484,0.00973484,-0.449413,2162.99,1872.81)">
            <path d="M4997,3389C4882,3313 4793,3225 4756,3151C4719,3079 4604,2616 4630,2647C4634,2652 4646,2668 4658,2684C4672,2702 4680,2707 4680,2697C4680,2675 4595,2566 4549,2529C4527,2512 4511,2496 4514,2493C4524,2483 4571,2518 4665,2609C4852,2790 4971,2893 4961,2868C4930,2787 4886,2702 4856,2670C4812,2621 4802,2603 4789,2538C4772,2458 4758,2439 4668,2370C4407,2169 4313,2089 4278,2039C4257,2009 4203,1951 4158,1910C4073,1833 4084,1852 4199,1979C4233,2018 4258,2050 4254,2050C4234,2050 4019,1867 3987,1823C3920,1732 3817,1642 3683,1558C3556,1476 3453,1394 3464,1382C3469,1378 3518,1390 3558,1406C3564,1409 3570,1407 3570,1402C3570,1388 3495,1354 3415,1332C3377,1321 3336,1310 3325,1306C3314,1303 3330,1312 3361,1327C3402,1346 3424,1365 3444,1396C3473,1441 3565,1517 3635,1552C3756,1614 3873,1715 3975,1846C4034,1921 4140,2024 4237,2099C4286,2136 4344,2247 4355,2319C4362,2370 4365,2371 4263,2287C4213,2245 3990,2105 3990,2115C3990,2117 4027,2147 4073,2181C4118,2216 4191,2278 4236,2320C4297,2378 4331,2403 4378,2421C4441,2445 4462,2465 4413,2454C4271,2423 4186,2367 4156,2285C4142,2246 4141,2246 4141,2275C4140,2311 4174,2370 4212,2400C4252,2431 4348,2468 4410,2476C4472,2484 4519,2521 4569,2599C4592,2635 4600,2658 4600,2693C4600,2718 4609,2763 4620,2792L4641,2845L4606,2805C4586,2783 4571,2762 4570,2758C4570,2753 4565,2750 4560,2750C4554,2750 4568,2786 4590,2830C4632,2914 4673,3010 4666,3010C4658,3010 4571,2855 4542,2790C4526,2754 4508,2714 4502,2700C4472,2634 4505,2741 4541,2829C4563,2881 4578,2925 4576,2927C4574,2929 4548,2891 4517,2843C4481,2786 4445,2743 4415,2720C4369,2686 4184,2472 4162,2427C4156,2415 4137,2367 4119,2322C4093,2253 4076,2226 4021,2167C3985,2128 3961,2100 3969,2105C3979,2110 3981,2109 3976,2101C3972,2095 3965,2092 3960,2095C3952,2100 3936,2083 3935,2070C3935,2067 3929,2045 3923,2020C3916,1995 3908,1958 3905,1937C3901,1911 3883,1882 3845,1839C3815,1806 3784,1759 3775,1735C3761,1700 3745,1683 3689,1646C3651,1620 3620,1602 3620,1605C3620,1607 3649,1633 3685,1661C3730,1696 3752,1721 3758,1743C3763,1761 3763,1776 3759,1778C3744,1784 3662,1735 3515,1632C3269,1459 3147,1374 3115,1355L3085,1338L3110,1360C3183,1425 3583,1707 3762,1820C3799,1843 3839,1877 3850,1894C3875,1935 3930,2070 3921,2070C3918,2070 3868,2026 3810,1972C3698,1869 3582,1775 3574,1783C3572,1785 3593,1806 3622,1828C3651,1850 3691,1885 3710,1906L3745,1943L3711,1924C3693,1914 3655,1885 3627,1860C3599,1835 3580,1822 3584,1830C3597,1856 3566,1814 3548,1782C3539,1765 3522,1747 3511,1741C3493,1731 3494,1735 3519,1772C3541,1803 3545,1816 3535,1818C3507,1824 3466,1784 3405,1691C3358,1620 3321,1578 3263,1529C3182,1461 3007,1327 2956,1295C2929,1277 2892,1275 2471,1268C2036,1260 1906,1254 2070,1249L2145,1247L2080,1240C2044,1235 1524.48,1222.85 1395.48,1219.85C1266.48,1215.85 342.805,1182.69 185.805,1173.69C28.805,1165.69 2346.9,1160.83 2117.9,1160.83C1969.9,1160.83 1418.34,1186.93 1894,1207C1898.24,1207.18 1959,1217 2032,1221C2105,1226 2228,1233 2305,1238C2388,1244 2724,1244 3135,1239C3515,1235 4116,1231 4473,1231L5120,1230L5120,1306C5120,1363 5117,1381 5108,1377C5010,1335 4867,1280 4864,1283C4862,1285 4895,1301 4938,1319C4980,1338 5039,1364 5068,1378C5119,1403 5120,1404 5120,1448L5120,1493L5070,1446C5003,1383 4930,1350 4860,1350C4821,1350 4784,1341 4735,1320C4696,1304 4656,1291 4645,1291C4632,1291 4638,1296 4660,1304C4679,1311 4733,1337 4780,1361C4827,1385 4888,1413 4916,1422C4944,1432 5002,1462 5044,1490L5120,1540L5120,1595C5120,1625 5118,1650 5116,1650C5106,1650 4931,1536 4824,1459C4721,1386 4674,1355 4540,1271C4515,1256 4515,1256 4533,1277C4555,1302 4853,1522 4930,1570C4960,1589 5015,1623 5053,1647L5120,1691L5120,1822C5120,1971 5131,1965 5025,1875C4992,1847 4938,1804 4905,1779C4775,1681 4796,1708 4940,1823C5072,1929 5126,1977 5119,1984C5116,1987 5060,1951 4994,1904C4929,1857 4832,1792 4780,1760C4648,1678 4513,1563 4481,1503C4451,1448 4421,1429 4271,1370C4186,1336 4149,1328 4056,1319C3995,1314 3928,1305 3907,1299C3885,1293 3866,1291 3863,1294C3851,1305 3913,1319 4037,1333C4150,1346 4178,1353 4278,1395C4404,1448 4442,1474 4470,1529C4480,1550 4519,1595 4557,1631C4622,1693 4657,1716 4872,1843C4920,1872 4996,1924 5040,1959L5120,2022L5120,2292L5078,2255C5021,2204 4990,2145 4983,2073C4977,2011 4949,1951 4906,1911C4882,1889 4883,1890 4914,1951C4933,1986 4950,2037 4954,2064C4957,2091 4972,2134 4986,2159L5011,2205L4960,2150C4933,2120 4887,2052 4860,1999C4772,1828 4711,1766 4548,1680C4474,1641 4475,1643 4558,1705C4638,1764 4702,1822 4743,1874C4769,1908 4763,1904 4705,1851C4544,1705 4284,1530 4137,1469C4097,1453 3989,1401 3895,1355C3802,1308 3712,1267 3695,1264C3669,1259 3672,1261 3710,1283C3866,1369 3979,1427 4087,1476C4182,1520 4233,1551 4312,1615C4419,1701 4602,1884 4695,1999C4724,2035 4794,2105 4849,2153C4905,2201 4950,2246 4950,2252C4950,2258 4941,2255 4930,2245C4919,2235 4907,2229 4904,2232C4891,2246 4941,2315 5028,2403L5121,2498L5118,2586L5115,2675L5047,2590C5002,2534 4956,2459 4912,2370C4848,2241 4842,2233 4780,2187C4686,2118 4626,2055 4611,2012C4596,1970 4540,1877 4533,1884C4531,1886 4536,1903 4545,1921C4555,1939 4571,1978 4581,2008C4595,2047 4617,2081 4659,2124C4722,2191 4738,2217 4765,2300C4802,2416 4882,2513 5060,2656L5120,2705L5120,2893C5120,2996 5118,3080 5115,3080C5100,3080 5030,3026 5026,3011C5023,3002 5012,2944 5000,2881C4979,2768 4933,2604 4924,2613C4922,2615 4931,2664 4945,2721C4959,2778 4973,2852 4976,2885C4988,3003 5007,3050 5066,3105L5121,3156L5118,3284L5115,3413L5071,3379C5016,3336 5012,3330 5005,3248C5001,3210 4995,3180 4991,3180C4986,3180 4985,3204 4987,3233C4995,3344 4996,3345 5060,3387C5096,3409 5120,3432 5120,3443C5120,3452 5116,3460 5111,3460C5107,3460 5055,3428 4997,3389ZM4905,3091C4899,3029 4894,3013 4869,2987C4852,2970 4840,2946 4840,2931C4840,2884 4820,2833 4775,2764C4746,2720 4730,2703 4730,2716C4730,2727 4742,2752 4756,2771C4793,2819 4820,2880 4820,2916C4820,2933 4832,2964 4846,2985C4873,3025 4890,3101 4890,3185C4890,3213 4894,3253 4898,3275C4904,3311 4905,3307 4908,3240C4910,3199 4908,3132 4905,3091ZM4754,3059C4735,3002 4711,2908 4701,2850C4683,2752 4682,2749 4681,2801C4680,2832 4689,2890 4699,2931C4719,3011 4779,3174 4786,3167C4788,3165 4774,3117 4754,3059ZM4480,2738C4480,2717 4437,2654 4433,2667C4430,2674 4438,2696 4450,2715C4473,2752 4480,2758 4480,2738ZM4060,2107C4060,2106 4035,2080 4004,2050C3973,2020 3953,2005 3959,2017C3971,2040 4060,2120 4060,2107ZM4385,1851C4338,1809 3622,1365 3613,1373C3606,1381 3667,1422 3845,1530C3939,1587 4056,1661 4105,1694C4184,1747 4377,1860 4390,1860C4392,1860 4390,1856 4385,1851ZM5110,1825C5110,1811 4854,1663 4845,1672C4842,1675 4882,1700 4933,1728C4983,1756 5041,1790 5060,1804C5094,1828 5110,1835 5110,1825ZM4720,1659C4720,1653 4695,1624 4665,1594C4634,1564 4613,1540 4618,1540C4623,1540 4653,1557 4686,1578C4765,1629 4770,1632 4770,1627C4770,1621 4665,1549 4588,1501C4550,1479 4520,1464 4520,1468C4520,1477 4705,1670 4714,1670C4717,1670 4720,1665 4720,1659ZM4460,1586C4460,1581 4360,1516 4322,1496C4253,1461 4281,1490 4362,1538C4439,1585 4460,1595 4460,1586ZM3187,1283C3167,1281 3135,1281 3117,1283C3100,1285 3117,1287 3155,1287C3194,1287 3208,1285 3187,1283ZM3633,1283C3620,1281 3598,1281 3583,1283C3567,1285 3578,1287 3605,1287C3633,1287 3645,1285 3633,1283Z" style="fill:rgb(114,113,113);fill-rule:nonzero;"/>
        </g>
        <g transform="matrix(0.449413,0.00973484,0.00973484,-0.449413,2162.99,1872.81)">
            <path d="M4334,2731C4267,2682 3958,2359 3890,2267C3830,2185 3746,2108 3615,2016L3575,1987L3616,2026C3638,2048 3689,2094 3729,2129C3769,2164 3812,2209 3826,2229C3839,2249 3858,2276 3867,2290L3884,2315L3856,2290C3841,2276 3822,2254 3815,2240C3808,2226 3787,2207 3768,2196L3735,2178L3765,2204C3819,2250 3779,2231 3706,2177C3578,2081 3490,2020 3490,2028C3490,2041 3590,2132 3670,2192C3711,2223 3783,2288 3830,2336L3915,2422L3865,2395C3803,2360 3634,2240 3558,2177C3481,2114 3418,1989 3389,1845C3378,1791 3354,1711 3336,1668C3317,1625 3304,1590 3307,1590C3317,1590 3352,1638 3398,1714C3444,1791 3449,1796 3575,1879C3764,2003 3835,2076 3919,2235C3936,2268 3971,2322 3995,2355C4054,2433 4303,2695 4354,2732C4375,2747 4389,2760 4383,2760C4378,2760 4355,2747 4334,2731Z" style="fill:rgb(114,113,113);fill-rule:nonzero;"/>
        </g>
        <g transform="matrix(0.449413,0.00973484,0.00973484,-0.449413,2162.99,1872.81)">
            <path d="M4814,2672C4744,2614 4549,2395 4512,2333C4468,2259 4454,2242 4469,2283C4473,2295 4480,2318 4484,2333C4494,2373 4477,2360 4436,2295C4417,2266 4379,2214 4351,2179C4323,2144 4300,2112 4300,2108C4300,2103 4333,2126 4373,2158C4412,2190 4472,2237 4505,2263C4666,2388 4730,2442 4739,2458C4744,2467 4753,2501 4760,2533C4766,2566 4786,2611 4805,2640C4824,2668 4838,2690 4837,2690C4836,2690 4826,2682 4814,2672ZM4657,2463C4648,2448 4627,2422 4610,2405C4580,2378 4581,2380 4619,2430C4641,2460 4660,2489 4660,2494C4660,2499 4663,2501 4666,2498C4669,2494 4665,2479 4657,2463Z" style="fill:rgb(114,113,113);fill-rule:nonzero;"/>
        </g>
        <g transform="matrix(0.449413,0.00973484,0.00973484,-0.449413,2162.99,1872.81)">
            <path d="M5053,2342C4964,2253 4968,2228 5060,2301C5114,2344 5124,2357 5118,2387C5116,2402 5102,2392 5053,2342Z" style="fill:rgb(114,113,113);fill-rule:nonzero;"/>
        </g>
        <g transform="matrix(0.449413,0.00973484,0.00973484,-0.449413,2162.99,1872.81)">
            <path d="M3420,1200L3265,1195L3515,1188C3653,1183 4070,1180 4443,1180C5038,1180 5120,1182 5120,1195C5120,1208 5028,1210 4348,1208C3923,1207 3505,1203 3420,1200Z" style="fill:rgb(114,113,113);fill-rule:nonzero;"/>
        </g>
        <g transform="matrix(0.449413,0.00973484,0.00973484,-0.449413,2162.99,1872.81)">
            <path d="M4458,1161C4339,1157 4238,1152 4234,1148C4230,1143 4428,1140 4673,1140C5064,1140 5120,1142 5120,1155C5120,1168 5089,1170 4898,1168C4775,1167 4577,1164 4458,1161Z" style="fill:rgb(114,113,113);fill-rule:nonzero;"/>
        </g>
        <g transform="matrix(0.449413,0.00973484,0.00973484,-0.449413,2162.99,1872.81)">
            <path d="M4530,1058C4793,1053 5002,1053 5040,1058C5084,1064 4938,1067 4595,1067L4085,1067L4530,1058Z" style="fill:rgb(114,113,113);fill-rule:nonzero;"/>
        </g>
    </g>
    <g transform="matrix(0.0549055,0.0335355,0.0335355,-0.0549055,445.828,1028.59)">
        <path d="M3653,5046C3521,4947 3434,4854 3385,4757C3363,4713 3328,4659 3308,4635C3287,4612 3273,4590 3276,4587C3279,4585 3228,4533 3162,4474C2967,4295 2776,4180 2580,4125C2478,4097 2426,4069 2310,3980C2208,3901 2149,3868 2006,3809C1792,3720 1721,3673 1415,3425C1284,3319 1263,3304 1025,3148C830,3020 716,2907 680,2803C671,2776 671,2776 698,2810C766,2898 834,2958 945,3031C1011,3075 1079,3119 1095,3130C1112,3141 1168,3179 1221,3214C1316,3277 1437,3365 1559,3461C1678,3554 1817,3639 1997,3729C2095,3779 2204,3839 2240,3863C2276,3887 2342,3932 2386,3962C2464,4015 2501,4034 2672,4113C2747,4148 2920,4255 2970,4298C2984,4310 3011,4333 3031,4348C3120,4414 3305,4590 3287,4590C3283,4590 3292,4602 3305,4616C3319,4631 3351,4674 3377,4713C3404,4752 3452,4810 3484,4843C3570,4928 3737,5054 3835,5108C3852,5118 3846,5119 3803,5120C3754,5120 3746,5116 3653,5046Z" style="fill:rgb(114,113,113);fill-rule:nonzero;"/>
    </g>
    <g transform="matrix(-0.66971,0.0203631,0.0203631,0.66971,3971.03,-69.2594)">
        <g transform="matrix(0.347943,-0.024253,-0.024253,-0.347943,1519.91,1844.51)">
            <path d="M3066.35,1323.61C3066.35,1323.61 2929.72,1354.77 2877,1373C2832.75,1388.3 2780,1419 2750,1433C2631,1486 2477,1617 2361,1765C2314,1825 2242,1913 2201,1960C2102,2073 1949,2234 1981,2190C2042,2108 2099,2021 2134,1958C2193,1849 2423,1620 2574,1519C2607,1496 2624,1481 2610,1485C2556,1501 2499,1544 2374,1662C2240,1789 2074,1953 2123,1910C2168,1871 2153,1903 2104,1950C2015,2037 1867,2237 1775,2395C1759,2423 1710,2490 1665,2545C1578,2652 1549,2696 1510,2775C1495,2806 1472,2833 1451,2845C1433,2856 1392,2888 1362,2915L1306,2965L1338,2919C1355,2893 1391,2854 1419,2831C1453,2802 1480,2766 1509,2710C1532,2666 1577,2597 1608,2558C1693,2450 1705,2432 1741,2350C1759,2309 1802,2232 1836,2180C1887,2103 1962,1939 1960,1911C1959,1908 1941,1941 1918,1985C1871,2077 1800,2170 1742,2218C1719,2235 1673,2291 1639,2340C1606,2390 1576,2430 1574,2430C1572,2430 1586,2402 1605,2368C1641,2300 1734,2071 1727,2064C1725,2062 1704,2101 1680,2152C1657,2203 1616,2284 1589,2333C1558,2388 1534,2447 1524,2493C1486,2660 1482,2670 1416,2739C1370,2787 1337,2836 1296,2915C1265,2976 1231,3036 1220,3050C1202,3073 1202,3069 1224,3010C1237,2974 1253,2923 1259,2896C1266,2868 1284,2817 1299,2781C1315,2745 1331,2690 1335,2660C1338,2630 1348,2581 1356,2551C1364,2522 1369,2496 1366,2493C1363,2490 1352,2521 1340,2561C1256,2857 1145,3120 1086,3164C1036,3201 1023,3205 1052,3174C1073,3152 1083,3122 1099,3045C1110,2990 1131,2916 1146,2881C1181,2794 1244,2491 1221,2515C1216,2521 1201,2586 1187,2660C1174,2735 1149,2830 1131,2873C1114,2916 1095,2981 1090,3018C1077,3097 1049,3148 985,3210L938,3255L978,3174C1018,3094 1018,3093 1023,2954C1026,2840 1030,2808 1047,2775C1058,2753 1076,2710 1086,2680C1100,2641 1124,2605 1177,2549C1216,2507 1259,2455 1273,2434C1297,2398 1356,2183 1346,2172C1343,2170 1329,2208 1315,2256C1267,2417 1259,2431 1154,2537C1103,2588 1088,2611 1070,2667C1057,2704 1034,2761 1018,2793C992,2846 990,2854 1001,2892C1019,2959 1004,3076 972,3118C958,3136 937,3171 926,3195C914,3219 881,3257 848,3284C795,3327 701,3452 696,3485C691,3519 546,3609 471,3625L438,3632L459,3604C479,3575 544,3303 538,3271C536,3262 527,3292 517,3338C487,3474 483,3438 506,3240C510,3204 509,3199 500,3213C494,3222 486,3279 483,3338C478,3430 473,3454 447,3505C431,3538 406,3580 393,3599C370,3629 370,3631 388,3621C409,3610 465,3520 481,3472C487,3452 488,3458 484,3495C477,3557 446,3618 417,3629C405,3634 373,3643 345,3649C318,3656 288,3668 280,3676C261,3695 280,3694 308,3674C321,3665 334,3660 336,3663C344,3671 199,3790 150,3815C118,3831 91,3857 61,3900C37,3934 15,3959 12,3956C2,3945 44,3856 78,3816L114,3775L76,3810C55,3829 29,3859 19,3875C-5,3914 -7,3883 17,3837C37,3798 51,3786 115,3756C143,3743 201,3697 247,3654C334,3570 334,3571 355,3425C364,3364 344,3404 331,3472C326,3504 314,3543 306,3559C283,3603 136,3732 81,3756C54,3768 29,3783 26,3789C11,3812 -1,3799 2,3763C5,3728 9,3723 75,3687C113,3666 155,3639 168,3628C207,3591 248,3517 255,3470C261,3431 274,3412 349,3333C479,3196 544,3120 575,3070C591,3045 619,3006 638,2983C685,2922 665,2930 595,2999C517,3075 480,3121 437,3196C397,3264 363,3301 378,3259C383,3246 390,3201 394,3160C398,3119 410,3054 421,3017C432,2979 440,2946 437,2944C425,2932 378,3097 368,3188L357,3291L294,3345C235,3397 232,3402 225,3457C213,3557 213,3559 126,3614C82,3643 35,3672 22,3679L0,3691L0,3473L1,3255L127,3145C304,2991 449,2851 466,2819C474,2803 480,2782 480,2772C480,2737 567,2654 697,2565C768,2517 870,2446 926,2407C1293,2146 1313,2134 1391,2145C1436,2151 1446,2148 1517,2110C1560,2086 1624,2046 1660,2021C1696,1996 1744,1962 1768,1947C1791,1932 1895,1839 1999,1741C2179,1571 2225,1536 2315,1498C2337,1489 2432,1448 2525,1406C2619,1365 2706,1330 2720,1327C2734,1325 2727,1324 2705,1326C2682,1328 2613,1349 2550,1374C2443,1415 2350,1439 2350,1426C2350,1416 2428,1380 2517,1350C2566,1334 2596,1320 2585,1320C2556,1320 2447,1347 2360,1375C2319,1388 2259,1404 2227,1411C2135,1428 2007,1499 1910,1585C1863,1627 1785,1688 1735,1722C1568,1836 1415,1948 1395,1970C1384,1983 1425,1960 1485,1920C1712,1769 1848,1670 1930,1596C1977,1554 2044,1505 2080,1486C2160,1444 2268,1405 2277,1414C2287,1423 2053,1657 1895,1797C1731,1942 1593,2041 1502,2080C1409,2119 1380,2118 1450,2077C1529,2031 1602,1979 1596,1973C1591,1968 1466,2042 1405,2086C1348,2126 1335,2120 1385,2075C1413,2051 1431,2030 1427,2030C1410,2030 1360,2061 1316,2099C1264,2144 1064,2284 1037,2293C1007,2304 1035,2263 1119,2175C1161,2131 1226,2060 1263,2018C1300,1976 1361,1917 1398,1889C1435,1860 1521,1782 1590,1715C1746,1562 1836,1502 2108,1366C2169,1335 2220,1308 2220,1305C2220,1289 1942,1424 1805,1507C1750,1540 1694,1573 1680,1580C1657,1592 1656,1592 1669,1577C1694,1546 1661,1559 1620,1596C1598,1616 1577,1630 1574,1627C1571,1624 1573,1605 1579,1584C1595,1527 1586,1533 1557,1597C1543,1629 1503,1696 1468,1745C1405,1835 1394,1843 1254,1930C1223,1949 1177,1984 1152,2007C1109,2047 1108,2050 1122,2072C1137,2094 1135,2098 1082,2155C1051,2188 1000,2251 968,2295C904,2381 873,2410 885,2369C917,2268 1128,1979 1293,1813C1360,1746 1416,1693 1419,1696C1422,1698 1397,1728 1364,1762C1323,1805 1314,1818 1335,1805C1379,1779 1409,1750 1443,1700C1488,1634 1582,1525 1591,1527C1596,1529 1597,1524 1594,1516C1584,1490 1731,1386 1899,1300L1944,1278L2430,1282L2917,1287L3262.83,1283.58C3263.22,1283.77 3406.22,1281.15 3445.85,1285.48C3432.97,1365.11 3272.57,1649.68 3259.51,1668.01C3246.77,1708.81 2121,3945 2089,3976C2073,3991 2060,4007 2060,4011C2060,4012.44 2039,4037 2026,4045C2005,4059 2000,4059 1973,4044C1926,4016 1900,4030 1851,4110C1825,4152 1792,4192 1770,4206C1728,4234 1691,4296 1635,4435C1599,4526 1577,4560 1554,4560C1547,4560 1528,4572 1511,4586C1494,4600 1473,4611 1463,4610C1427,4606 1420,4611 1387,4663C1351,4718 1203,4869 1170,4884C1154,4891 1134,4877 1053,4803C999,4754 939,4704 919,4692C900,4680 875,4662 865,4650C851,4634 840,4631 808,4637C774,4642 756,4636 684,4600C601,4558 599,4558 579,4576C536,4615 460,4741 460,4773C460,4815 431,4861 383,4896C362,4912 302,4968 250,5022C176,5099 149,5120 128,5120C113,5120 99,5116 96,5111C93,5106 70,5099 45,5096L0,5089L0,4976C0,4882 4,4851 25,4790C39,4750 48,4715 46,4712C43,4710 32,4723 21,4741L0,4775L0,4467L37,4379C89,4257 94,4274 45,4405C39,4420 40,4422 49,4414C62,4402 151,4139 138,4146C134,4149 130,4155 130,4160C130,4164 120,4190 108,4217C96,4243 88,4271 89,4279C90,4286 87,4289 81,4286C76,4282 56,4308 38,4342L5,4404L-1,4150L64,4070C99,4026 142,3979 159,3964L190,3938L294,3979C352,4002 420,4023 445,4026C469,4030 497,4038 506,4045C521,4056 520,4061 495,4109C479,4138 444,4187 417,4217C390,4248 364,4285 358,4299C345,4333 321,4531 322,4595C323,4623 325,4632 327,4615C350,4425 363,4339 372,4310C383,4275 410,4227 416,4232C417,4234 412,4286 405,4348C395,4425 384,4472 370,4494C359,4512 350,4541 350,4558C350,4575 343,4622 335,4662C326,4702 317,4768 315,4809L311,4883L262,4911C235,4926 196,4958 175,4982C137,5026 95,5099 103,5106C112,5115 217,5021 259,4966C284,4934 322,4898 345,4885C432,4834 432,4833 474,4425C485,4308 490,4290 517,4250C534,4225 565,4171 586,4130C607,4089 647,4030 674,4000C701,3970 750,3910 783,3868C841,3792 867,3772 856,3808C846,3842 789,4242 793,4247C804,4258 876,3807 865,3791C862,3785 879,3766 903,3748C928,3730 987,3681 1035,3640C1180,3516 1200,3502 1326,3441L1447,3381L1586,3233C1794,3012 1897,2915 1982,2860C2054,2814 2058,2813 2049,2837C2044,2851 2031,2921 2021,2991C2002,3123 1992,3148 1902,3288C1894,3300 1891,3310 1894,3310C1903,3310 1989,3176 2006,3133C2015,3113 2030,3040 2041,2971L2060,2847L2183,2725C2250,2658 2331,2586 2362,2566C2426,2525 2457,2481 2489,2380C2501,2345 2533,2281 2561,2238C2608,2167 2661,2048 2659,2017C2659,2010 2640,2043 2616,2090C2578,2166 2468,2330 2482,2289C2486,2280 2491,2247 2494,2214C2499,2167 2498,2161 2490,2185C2484,2202 2478,2250 2476,2292C2472,2388 2436,2469 2381,2507C2361,2520 2323,2547 2295,2565C2123,2682 2079,2712 2026,2751C1993,2774 1969,2787 1972,2779C1976,2771 1997,2723 2020,2672C2043,2620 2060,2576 2057,2574C2055,2571 2033,2602 2010,2642C1952,2742 1930,2772 1906,2790C1846,2833 1794,2893 1744,2977C1713,3029 1686,3069 1683,3067C1675,3058 1774,2861 1824,2785L1870,2715L1830,2758C1800,2792 1659,3048 1649,3088C1645,3102 1580,3173 1580,3163C1580,3156 1595,3135 1614,3115C1642,3086 1644,3081 1627,3086C1615,3090 1597,3094 1587,3094C1576,3094 1536,3135 1488,3195C1444,3250 1393,3314 1374,3338C1353,3362 1314,3393 1280,3410L1222,3439L1246,3379C1260,3345 1270,3314 1268,3309C1264,3298 1226,3333 1148,3418C1116,3453 1093,3473 1097,3463C1109,3431 1171,3327 1205,3278C1224,3252 1250,3209 1265,3181C1281,3149 1305,3120 1330,3104C1352,3089 1369,3075 1367,3073C1362,3068 1230,3143 1145,3199C1010,3288 1004,3296 930,3483C906,3542 883,3590 879,3590C867,3590 867,3593 895,3484C909,3431 920,3372 920,3353C920,3322 918,3319 898,3326C862,3337 825,3366 767,3430C705,3499 682,3510 732,3448C803,3357 837,3332 1002,3252C1236,3137 1441,2988 1670,2766C1781,2659 1808,2638 1907,2586C2009,2533 2028,2518 2142,2403C2263,2280 2395,2178 2496,2127C2525,2112 2572,2077 2601,2048C2631,2019 2659,1997 2664,1998C2669,2000 2670,1994 2667,1986C2659,1965 2723,1896 2794,1848C2827,1825 2898,1771 2950,1727C3002,1683 3075,1627 3112,1602C3171,1563 3303.93,1414.7 3283.93,1414.7C3274.93,1414.7 3039,1630 2930,1715C2788,1825 2756,1849 2750,1847C2743,1844 2682,1914 2637,1976C2599,2030 2562,2058 2464,2109C2432,2126 2362,2170 2310,2207L2215,2273L2277,2211C2341,2146 2404,2067 2435,2015L2452,1985L2429,2015C2377,2080 2292,2171 2233,2225C2198,2256 2170,2286 2170,2292C2170,2298 2180,2295 2193,2284L2215,2265L2196,2287C2186,2300 2174,2307 2169,2305C2165,2302 2144,2320 2124,2345C2103,2369 2084,2388 2082,2386C2071,2375 2436,1932 2485,1897C2512,1878 2554,1810 2564,1770C2568,1756 2559,1768 2544,1795C2530,1823 2487,1877 2450,1915C2329,2038 2126,2285 2078,2366C2037,2435 1940,2548 1940,2527C1940,2523 1950,2500 1961,2477L1983,2435L1941,2480C1902,2522 1903,2519 1963,2424C2048,2291 2061,2264 2015,2315C1995,2337 1954,2396 1924,2445C1871,2531 1794,2621 1758,2641C1745,2648 1743,2646 1747,2627C1750,2610 1747,2612 1734,2635C1714,2670 1589,2812 1583,2807C1575,2798 1623,2689 1659,2634C1708,2558 1939,2291 2093,2131C2158,2063 2258,1953 2315,1886C2372,1820 2448,1740 2485,1710C2522,1680 2576,1628 2605,1595C2650,1543 2740,1477 2740,1495C2740,1498 2733,1515 2724,1532C2715,1550 2700,1591 2690,1624C2670,1693 2555,2000 2533,2044C2525,2059 2523,2069 2529,2065C2551,2052 2616,1896 2695,1667C2729,1570 2764,1505 2779,1515C2784,1517 2796,1510 2806,1499C2836,1466 2888,1438 2964,1415L3149.89,1365.82C3224.98,1322.03 3119.22,1323.09 3066.35,1323.61M109,4860C130,4746 134,4713 126,4721C114,4733 72,4991 83,4980C86,4977 98,4923 109,4860ZM79,4900C79,4892 72,4899 65,4915C57,4932 51,4952 51,4960C51,4968 58,4962 65,4945C73,4929 79,4908 79,4900ZM64,4843C77,4816 91,4780 95,4761C106,4711 140,4639 171,4600C192,4574 202,4547 209,4494C215,4454 225,4409 231,4394C237,4378 241,4335 240,4298C239,4260 237,4209 237,4183C236,4156 239,4122 243,4105C248,4083 248,4079 240,4090C216,4125 209,4180 221,4239C233,4294 232,4306 207,4399C192,4454 180,4512 180,4528C180,4546 165,4576 141,4609C112,4647 97,4682 85,4732C76,4771 60,4820 50,4841C29,4880 27,4890 35,4890C37,4890 50,4869 64,4843ZM1318,4704C1360,4657 1395,4600 1383,4600C1379,4600 1364,4617 1350,4638C1336,4659 1291,4709 1249,4748C1176,4816 1172,4819 1156,4802C1134,4777 1135,4763 1158,4783C1175,4799 1180,4796 1238,4737C1307,4667 1327,4622 1306,4583L1293,4558L1269,4588C1256,4605 1234,4637 1220,4659C1207,4682 1193,4700 1189,4700C1185,4700 1177,4687 1172,4670C1160,4637 1172,4621 1194,4639C1204,4648 1217,4638 1249,4595C1272,4564 1290,4531 1288,4521C1286,4511 1291,4496 1299,4486C1311,4472 1310,4467 1296,4451C1282,4436 1281,4427 1290,4411C1297,4397 1297,4386 1291,4377C1285,4371 1270,4352 1256,4335L1232,4305L1237,4331C1243,4361 1223,4440 1210,4440C1196,4440 1183,4410 1176,4356C1169,4296 1131,4166 1123,4174C1120,4177 1125,4210 1134,4247C1147,4301 1149,4325 1141,4360C1135,4385 1130,4432 1130,4464C1130,4511 1125,4529 1108,4547L1087,4570L1114,4623C1145,4685 1157,4744 1141,4754C1135,4758 1130,4754 1130,4744C1130,4700 1066,4626 1008,4604C983,4595 985,4622 1011,4646C1023,4656 1041,4679 1053,4695C1069,4718 1064,4716 1034,4685C1013,4662 981,4633 963,4618C946,4604 925,4576 916,4557C899,4515 791,4430 755,4430C735,4430 713,4447 696,4477C690,4487 778,4554 940,4662C970,4682 1031,4734 1074,4779L1153,4859L1218,4802C1253,4771 1298,4727 1318,4704ZM799,4606C797,4604 769,4581 736,4556C686,4518 675,4513 659,4523C639,4536 634,4550 650,4550C656,4550 681,4563 708,4580C734,4596 766,4610 779,4610C792,4610 801,4608 799,4606ZM1031,4572C1019,4550 980,4514 980,4525C980,4534 1030,4590 1037,4590C1039,4590 1036,4582 1031,4572ZM1505,4547C1545,4525 1548,4522 1533,4507C1518,4493 1515,4493 1498,4516C1470,4551 1461,4546 1463,4493C1464,4466 1461,4437 1456,4428C1441,4396 1469,4408 1490,4442C1511,4477 1546,4486 1559,4461C1564,4452 1568,4416 1569,4381C1570,4321 1573,4314 1609,4275C1643,4238 1649,4224 1659,4159C1683,3994 1736,3796 1774,3721C1784,3702 1861,3617 1945,3533C2075,3402 2107,3375 2157,3355C2229,3325 2335,3222 2381,3137C2398,3106 2437,3055 2468,3025C2499,2995 2522,2969 2519,2966C2510,2957 2401,3059 2368,3108C2351,3134 2325,3168 2311,3183C2286,3211 2202,3260 2180,3260C2164,3260 2448,2978 2500,2943C2565,2898 2670,2792 2685,2756C2692,2739 2703,2693 2709,2654C2720,2579 2766,2460 2827,2350C2846,2315 2870,2254 2880,2214C2890,2175 2919,2098 2943,2044C2968,1989 2999,1919 3013,1888C3060,1783 3137,1684 3206,1644C3216,1637 3278.02,1580.08 3274.02,1576.08C3260.02,1562.08 3138,1664 3089,1729C3017,1823 2880,2116 2864,2209C2861,2229 2827,2311 2789,2391C2740,2494 2715,2561 2704,2616C2678,2755 2674,2765 2613,2820C2582,2849 2523,2894 2482,2922C2399,2978 2319,3055 2211,3180C2112,3297 1988,3438 1950,3480L1917,3515L1945,3475C1961,3453 1992,3413 2015,3385C2038,3358 2077,3304 2103,3265C2150,3196 2180,3158 2301,3012C2371,2928 2376,2890 2307,2964C2281,2992 2258,3011 2255,3008C2251,3005 2262,2978 2279,2949C2295,2919 2314,2875 2320,2850C2326,2825 2347,2771 2365,2730C2384,2688 2401,2634 2404,2610L2410,2565L2392,2620C2381,2650 2362,2698 2347,2725C2333,2753 2314,2803 2305,2835C2282,2913 2249,2979 2216,3009C2186,3037 2187,3041 2200,2911C2207,2849 2219,2798 2235,2762C2267,2693 2267,2677 2236,2715C2208,2749 2195,2798 2180,2922C2174,2970 2158,3037 2145,3072L2120,3135L2125,3075C2129,3016 2129,3016 2119,3060C2114,3085 2112,3117 2114,3131C2119,3159 2103,3178 2025,3236C2003,3252 1972,3275 1955,3287C1939,3299 1884,3330 1833,3355C1751,3395 1734,3409 1673,3480C1607,3558 1582,3576 1476,3620C1449,3631 1429,3643 1432,3646C1435,3649 1464,3640 1496,3627C1529,3614 1575,3596 1600,3587C1633,3575 1669,3546 1727,3486C1792,3418 1818,3398 1866,3381C1902,3367 1948,3338 1986,3304C2049,3249 2080,3232 2043,3273C2032,3285 2000,3329 1972,3370C1944,3411 1900,3465 1874,3490L1828,3535L1866,3475C1887,3442 1924,3393 1949,3366C1985,3327 1988,3322 1962,3343C1943,3358 1918,3373 1904,3376C1888,3380 1860,3413 1816,3479C1751,3578 1727,3604 1675,3636L1645,3655L1681,3614C1722,3567 1785,3461 1776,3453C1770,3447 1701,3519 1700,3532C1698,3568 1560,3661 1481,3679C1434,3689 1389,3683 1412,3669C1422,3662 1421,3660 1408,3660C1399,3660 1383,3672 1373,3687C1332,3748 1263,3810 1236,3810C1201,3810 1117,3887 1079,3955C1063,3983 1034,4021 1014,4040C978,4074 977,4074 997,4045C1039,3983 1163,3735 1143,3753C1132,3762 1110,3794 1095,3823C1079,3851 1053,3895 1037,3920L1009,3965L1015,3925C1025,3867 1059,3698 1066,3675C1070,3662 1069,3658 1062,3665C1043,3685 1011,3808 990,3945C978,4022 966,4094 963,4105C959,4119 972,4111 1006,4080C1044,4045 1087,4020 1193,3976C1279,3939 1360,3896 1410,3861C1587,3735 1708,3649 1765,3608C1842,3553 1850,3550 1817,3590C1774,3640 1759,3676 1724,3800C1688,3927 1682,3932 1706,3815C1726,3719 1718,3706 1696,3797C1667,3910 1620,3999 1560,4053L1506,4101L1488,4078C1463,4047 1418,3959 1423,3953C1430,3946 1491,4037 1500,4068L1508,4095L1509,4067C1510,4032 1489,3990 1443,3939C1403,3895 1399,3894 1365,3916L1341,3932L1386,3986C1421,4030 1430,4048 1430,4080C1430,4108 1437,4127 1456,4147L1481,4175L1475,4138C1469,4099 1477,4091 1498,4112C1510,4124 1565,4081 1631,4007L1667,3967L1663,4026C1660,4071 1648,4106 1614,4173C1576,4248 1567,4277 1557,4358L1545,4455L1526,4407C1516,4381 1504,4362 1500,4365C1495,4368 1488,4365 1484,4359C1480,4351 1481,4350 1488,4354C1505,4364 1503,4330 1486,4311C1472,4295 1431,4190 1426,4157C1425,4148 1415,4128 1404,4112C1363,4056 1318,3969 1324,3955C1328,3944 1320,3945 1287,3959C1063,4057 969,4123 926,4214C912,4244 900,4275 900,4282C899,4289 893,4311 886,4332L873,4368L906,4347C924,4335 944,4316 950,4305C956,4294 972,4277 984,4268L1007,4251L1020,4313C1026,4347 1036,4386 1041,4400C1054,4436 1042,4324 1028,4280C1018,4248 1019,4245 1051,4220C1069,4206 1105,4177 1131,4154C1156,4132 1187,4106 1199,4098C1214,4087 1222,4071 1223,4047C1225,4018 1227,4014 1239,4023C1265,4044 1310,4123 1310,4147C1310,4160 1326,4187 1346,4208L1382,4245L1376,4211C1366,4155 1382,4185 1401,4258C1427,4356 1425,4359 1375,4296C1324,4229 1320,4236 1355,4335C1372,4384 1380,4426 1380,4478C1380,4544 1382,4550 1401,4550C1419,4550 1421,4546 1415,4520C1411,4503 1413,4490 1418,4490C1423,4490 1430,4508 1434,4530C1437,4552 1445,4570 1451,4570C1456,4570 1481,4559 1505,4547ZM27,4498C25,4485 23,4495 23,4520C23,4545 25,4555 27,4543C29,4530 29,4510 27,4498ZM970,4537C970,4511 929,4450 887,4411C865,4391 858,4389 845,4400C831,4412 833,4417 863,4449C882,4469 907,4502 919,4523C945,4565 970,4572 970,4537ZM625,4392C645,4302 639,4285 617,4372C599,4447 585,4544 600,4495C605,4479 616,4432 625,4392ZM675,4446C698,4406 705,4402 751,4396C832,4385 853,4357 869,4237C878,4170 886,4143 892,4152C898,4160 899,4154 895,4133C892,4116 898,4036 910,3955C922,3875 930,3799 928,3787C926,3775 913,3846 897,3945C844,4289 838,4325 831,4340C820,4360 783,4378 737,4385C707,4390 693,4400 665,4438C646,4464 630,4489 630,4493C630,4510 651,4488 675,4446ZM1658,4265L1659,4245L1650,4265C1645,4276 1642,4296 1642,4310L1642,4335L1650,4310C1654,4296 1658,4276 1658,4265ZM1205,4263C1196,4248 1191,4243 1194,4253C1198,4264 1203,4284 1207,4298C1212,4317 1215,4320 1218,4308C1220,4299 1214,4279 1205,4263ZM647,4278C644,4270 641,4273 641,4284C640,4295 643,4301 646,4297C649,4294 650,4285 647,4278ZM787,4268C784,4260 781,4263 781,4274C780,4285 783,4291 786,4287C789,4284 790,4275 787,4268ZM1494,4226C1491,4213 1475,4190 1459,4174C1423,4140 1421,4151 1455,4192C1470,4210 1480,4234 1480,4253C1481,4279 1482,4282 1491,4268C1496,4258 1498,4240 1494,4226ZM1826,4089C1864,4012 1899,3978 1929,3985C1954,3990 1953,3989 1920,3960C1878,3925 1875,3924 1873,3951C1871,3974 1824,4040 1809,4040C1793,4040 1799,4019 1832,3962C1849,3932 1858,3910 1852,3914C1846,3917 1831,3938 1819,3960C1801,3991 1794,3997 1783,3989C1772,3980 1770,3991 1770,4051C1770,4092 1767,4136 1763,4150L1757,4175L1780,4155C1792,4144 1813,4114 1826,4089ZM927,4128C924,4121 922,4126 922,4140C922,4154 924,4159 927,4153C929,4146 929,4134 927,4128ZM928,4000C928,3986 922,4000 915,4030C907,4060 901,4094 902,4105C903,4132 928,4032 928,4000ZM2341,3483C2311,3516 2850.89,2444.75 2763,2558C2736.61,2592 2731.77,2699.23 2732,2705C2733,2722 2726,2747 2716,2762C2706,2778 2689,2823 2679,2862C2648,2981 2640,2997 2606,3023C2558,3060 2466,3205 2440,3285C2411,3374 2378,3440 2341,3483ZM185,3999C201,3980 198,3981 168,4004C147,4020 130,4034 130,4037C130,4045 166,4021 185,3999ZM2029,3884C2040,3795 2044,3703 2036,3711C2034,3713 2027,3767 2021,3830C2014,3893 2007,3961 2005,3980C2001,4007 2002,4010 2009,3994C2014,3983 2023,3933 2029,3884ZM2105,3810C2114,3747 2131,3653 2142,3602C2153,3550 2159,3506 2157,3504C2144,3491 2069,3874 2070,3943C2071,3981 2090,3909 2105,3810ZM1454,3580C1499,3548 1525,3515 1590,3405C1612,3368 1612,3366 1593,3383C1582,3393 1558,3428 1540,3462C1515,3509 1494,3532 1441,3569C1367,3621 1314,3672 1285,3722C1271,3746 1285,3736 1336,3685C1374,3646 1427,3599 1454,3580ZM2250,3565C2271,3438 2274,3413 2264,3422C2261,3426 2248,3488 2235,3561C2215,3677 2208,3697 2186,3717C2172,3729 2160,3743 2160,3747C2160,3751 2176,3739 2195,3720C2228,3687 2232,3677 2250,3565ZM2185,3559C2204,3484 2222,3414 2226,3404C2231,3386 2231,3386 2216,3403C2199,3425 2139,3662 2141,3705C2142,3725 2144,3728 2147,3715C2149,3704 2166,3634 2185,3559ZM1727,3698C1724,3690 1721,3693 1721,3704C1720,3715 1723,3721 1726,3717C1729,3714 1730,3705 1727,3698ZM1171,3594C1182,3575 1190,3556 1188,3551C1186,3546 1170,3567 1152,3597C1117,3656 1134,3653 1171,3594ZM575,3538C598,3503 610,3474 610,3450C610,3431 622,3390 636,3360C692,3240 741,3107 773,2988C803,2876 811,2857 852,2809C913,2736 918,2725 940,2608C951,2553 969,2483 980,2452C991,2422 999,2396 997,2394C987,2384 930,2533 919,2595C904,2685 889,2722 842,2779C789,2841 783,2854 760,2957C731,3082 704,3159 643,3292C614,3357 590,3421 590,3435C590,3449 577,3487 560,3520C544,3553 530,3582 530,3585C530,3599 542,3586 575,3538ZM270,3539C270,3529 266,3520 260,3520C255,3520 250,3532 250,3546C250,3560 254,3569 260,3565C266,3562 270,3550 270,3539ZM423,3388C451,3318 459,3278 435,3320C414,3360 383,3461 376,3510L371,3555L384,3505C391,3477 409,3424 423,3388ZM2353,3422C2361,3407 2375,3366 2385,3330C2406,3251 2423,3216 2462,3171C2479,3152 2500,3118 2510,3095C2520,3071 2548,3036 2575,3014C2617,2979 2668,2905 2657,2894C2655,2891 2647,2903 2640,2920C2633,2937 2599,2976 2564,3006C2525,3040 2499,3072 2495,3089C2492,3105 2469,3141 2445,3169C2412,3207 2395,3240 2380,3293C2346,3410 2341,3423 2317,3448L2295,3473L2317,3461C2330,3455 2346,3437 2353,3422ZM1789,3296C1800,3266 1816,3214 1825,3179C1834,3145 1852,3096 1865,3071C1887,3027 1912,2950 1905,2950C1898,2950 1842,3057 1827,3100C1818,3125 1800,3186 1786,3235C1773,3285 1758,3334 1754,3344C1749,3357 1750,3361 1758,3356C1764,3353 1778,3325 1789,3296ZM1516,3032C1528,2992 1534,2962 1529,2965C1524,2969 1520,2975 1520,2980C1520,3005 1474,3106 1441,3157C1420,3189 1399,3226 1395,3240C1391,3254 1411,3229 1440,3185C1471,3138 1503,3075 1516,3032ZM657,2900C668,2881 685,2842 694,2813C704,2785 728,2742 749,2718C770,2694 795,2659 805,2640C815,2621 849,2577 881,2542C912,2507 943,2465 949,2448C960,2418 959,2418 907,2465C835,2531 812,2558 790,2608C779,2632 751,2674 726,2702C701,2731 668,2786 650,2829C632,2870 598,2929 574,2960C550,2991 530,3020 530,3025C530,3040 637,2936 657,2900ZM2137,2963C2134,2953 2132,2961 2132,2980C2132,2999 2134,3007 2137,2998C2139,2988 2139,2972 2137,2963ZM2442,2909C2498,2873 2500,2863 2446,2885C2429,2893 2428,2889 2435,2829C2445,2745 2435,2756 2421,2845C2414,2896 2405,2920 2389,2933C2353,2962 2376,2952 2442,2909ZM2147,2898C2144,2891 2142,2896 2142,2910C2142,2924 2144,2929 2147,2923C2149,2916 2149,2904 2147,2898ZM1064,2790C1067,2776 1061,2783 1051,2805C1040,2827 1032,2852 1032,2860C1032,2877 1054,2828 1064,2790ZM2584,2767C2625,2708 2639,2668 2675,2506C2691,2437 2713,2372 2736,2331C2755,2293 2762,2276 2750,2290C2710,2339 2679,2412 2655,2518C2622,2662 2606,2713 2583,2747C2559,2781 2538,2820 2543,2820C2546,2820 2564,2796 2584,2767ZM2487,2788C2484,2780 2481,2783 2481,2794C2480,2805 2483,2811 2486,2807C2489,2804 2490,2795 2487,2788ZM2497,2708C2495,2695 2493,2703 2493,2725C2492,2747 2494,2757 2497,2748C2499,2738 2499,2720 2497,2708ZM2507,2658C2504,2650 2501,2653 2501,2664C2500,2675 2503,2681 2506,2677C2509,2674 2510,2665 2507,2658ZM2763,2558C2746.86,2587.47 3237.41,1666.22 3232.51,1650.04C3222.51,1618.04 3033,1966 3032,1973C3030,1994 2972,2147 2945,2199C2931,2227 2922,2255 2922,2255L2887,2291C2863,2316 2845,2351 2825,2411C2810,2457 2782,2523 2763,2558ZM2556,2575C2573,2547 2573,2546 2557,2559C2539,2573 2510,2621 2510,2637C2510,2645 2523,2627 2556,2575ZM2280,2525C2300,2493 2370,2305 2370,2286C2369,2266 2352,2304 2317,2403C2297,2459 2268,2517 2248,2542C2229,2566 2209,2592 2205,2600C2191,2626 2261,2556 2280,2525ZM1444,2457C1511,2338 1568,2205 1557,2193C1554,2191 1545,2210 1536,2237C1527,2263 1490,2339 1454,2405C1365,2568 1347,2603 1359,2596C1365,2592 1403,2530 1444,2457ZM2429,2380C2429,2362 2424,2369 2411,2405C2381,2488 2379,2508 2405,2455C2419,2428 2429,2394 2429,2380ZM2845,2043C2854,2000 2864,1956 2866,1945C2870,1929 2869,1928 2862,1940C2853,1954 2820,2088 2820,2109C2820,2139 2830,2112 2845,2043ZM2504,2044C2507,2036 2506,2032 2500,2035C2494,2038 2490,2045 2490,2051C2490,2065 2497,2062 2504,2044ZM1985,1666C2095,1554 2167,1475 2145,1490C2123,1505 2079,1546 2046,1581C2014,1616 1937,1696 1876,1758C1815,1819 1769,1870 1775,1870C1780,1870 1875,1778 1985,1666ZM2789,1790C2831,1722 2828,1713 2785,1777C2766,1806 2750,1832 2750,1835C2750,1848 2761,1836 2789,1790ZM2271,1684C2294,1653 2330,1610 2352,1588C2374,1566 2383,1553 2373,1558C2347,1573 2288,1637 2251,1693C2207,1758 2220,1752 2271,1684ZM2942,1591C2967,1574 3016,1547 3051,1530C3086,1514 3178.54,1450.59 3168.54,1450.59C3133.54,1450.59 2905,1589 2865,1632L2825,1674L2861,1648C2880,1634 2917,1608 2942,1591ZM2778,1524C2774,1521 2766,1529 2760,1542C2748,1564 2748,1564 2766,1548C2776,1538 2781,1528 2778,1524ZM2283,1360C2321,1348 2349,1336 2346,1333C2340,1327 2221,1366 2200,1381C2182,1394 2181,1394 2283,1360Z" style="fill:rgb(114,113,113);fill-rule:nonzero;"/>
        </g>
        <g transform="matrix(0.347943,-0.024253,-0.024253,-0.347943,1519.91,1844.51)">
            <path d="M862,4566C816,4533 809,4523 848,4546C867,4556 886,4571 892,4578C907,4595 900,4592 862,4566Z" style="fill:rgb(114,113,113);fill-rule:nonzero;"/>
        </g>
        <g transform="matrix(0.347943,-0.024253,-0.024253,-0.347943,1519.91,1844.51)">
            <path d="M1411,4416C1403,4406 1402,4400 1410,4395C1415,4392 1423,4396 1426,4405C1435,4427 1425,4434 1411,4416Z" style="fill:rgb(114,113,113);fill-rule:nonzero;"/>
        </g>
        <g transform="matrix(0.347943,-0.024253,-0.024253,-0.347943,1519.91,1844.51)">
            <path d="M1114,3921C1123,3907 1230,3836 1235,3841C1237,3843 1209,3864 1173,3888C1137,3912 1111,3927 1114,3921Z" style="fill:rgb(114,113,113);fill-rule:nonzero;"/>
        </g>
        <g transform="matrix(0.347943,-0.024253,-0.024253,-0.347943,1519.91,1844.51)">
            <path d="M1349,3826C1355,3819 1358,3806 1354,3797C1347,3777 1392,3746 1418,3754C1429,3758 1450,3756 1465,3750C1515,3731 1502,3747 1429,3794C1356,3840 1328,3852 1349,3826Z" style="fill:rgb(114,113,113);fill-rule:nonzero;"/>
        </g>
        <g transform="matrix(0.347943,-0.024253,-0.024253,-0.347943,1519.91,1844.51)">
            <path d="M2150,3126C2150,3117 2229,3010 2236,3010C2238,3010 2240,3016 2240,3023C2239,3037 2151,3140 2150,3126Z" style="fill:rgb(114,113,113);fill-rule:nonzero;"/>
        </g>
        <g transform="matrix(0.347943,-0.024253,-0.024253,-0.347943,1519.91,1844.51)">
            <path d="M324,4855C327,4846 337,4795 345,4742C353,4689 364,4624 370,4599C375,4574 376,4544 373,4532C370,4519 376,4500 388,4483C400,4467 414,4418 423,4369C431,4319 450,4260 468,4225C501,4159 569,4076 570,4100C570,4115 561,4130 506,4209C472,4258 468,4282 440,4560C412,4835 415,4823 370,4849C325,4874 316,4875 324,4855Z" style="fill:rgb(114,113,113);fill-rule:nonzero;"/>
        </g>
        <g transform="matrix(0.347943,-0.024253,-0.024253,-0.347943,1519.91,1844.51)">
            <path d="M570,4006C570,3984 567,3979 553,3984C543,3988 559,3967 587,3940C616,3912 644,3892 650,3895C665,3904 635,3970 600,4005L570,4035L570,4006Z" style="fill:rgb(114,113,113);fill-rule:nonzero;"/>
        </g>
        <g transform="matrix(0.347943,-0.024253,-0.024253,-0.347943,1519.91,1844.51)">
            <path d="M350,3956C325,3943 286,3929 263,3925C239,3921 220,3915 220,3911C220,3907 257,3887 303,3866C348,3846 399,3818 415,3805C445,3780 445,3780 420,3785C406,3788 367,3794 332,3799C298,3805 260,3816 248,3824C236,3833 216,3840 205,3840C194,3840 167,3849 145,3860C96,3885 92,3885 115,3860C139,3834 300,3745 444,3679C578,3618 720,3518 777,3445C800,3416 839,3378 864,3360L910,3329L904,3362C892,3428 859,3566 850,3590C837,3621 740,3679 740,3656C740,3648 744,3639 749,3636C758,3630 789,3549 819,3450L839,3385L814,3415C764,3474 731,3533 724,3576C721,3600 707,3634 694,3651C681,3669 670,3689 670,3695C670,3701 652,3727 629,3754C607,3781 564,3839 534,3882C503,3925 477,3960 475,3960C473,3960 460,3935 446,3905C432,3875 418,3850 415,3850C412,3850 417,3864 425,3881C434,3897 440,3926 438,3943C434,3984 410,3987 350,3956Z" style="fill:rgb(114,113,113);fill-rule:nonzero;"/>
        </g>
        <g transform="matrix(0.347943,-0.024253,-0.024253,-0.347943,1519.91,1844.51)">
            <path d="M590,3886C590,3875 644,3782 670,3750C693,3721 696,3737 676,3783C660,3817 590,3901 590,3886Z" style="fill:rgb(114,113,113);fill-rule:nonzero;"/>
        </g>
        <g transform="matrix(0.347943,-0.024253,-0.024253,-0.347943,1519.91,1844.51)">
            <path d="M696,3859C713,3840 733,3809 741,3790C746.415,3775.3 761.105,3753.28 779.052,3730.8C807.507,3695.17 844.15,3658.43 865,3648C884,3637 884,3638 870,3656C862,3666 842,3691 825,3711C809,3731 775,3775 751,3809C726,3843 697,3876 686,3882C671,3890 674,3883 696,3859Z" style="fill:rgb(114,113,113);fill-rule:nonzero;"/>
        </g>
        <g transform="matrix(0.347943,-0.024253,-0.024253,-0.347943,1519.91,1844.51)">
            <path d="M976,3524L982,3465L951,3518C934,3546 917,3570 914,3570C911,3570 921,3549 936,3523C951,3496 976,3451 991,3421C1036,3335 1151,3197 1165,3212C1175,3222 1145,3287 1097,3359C1070,3400 1036,3460 1023,3494C1009,3528 992,3561 985,3569C973,3581 972,3574 976,3524Z" style="fill:rgb(114,113,113);fill-rule:nonzero;"/>
        </g>
        <g transform="matrix(0.347943,-0.024253,-0.024253,-0.347943,1519.91,1844.51)">
            <path d="M0,3172C0,3147 104,2925 134,2885C164,2847 200,2775 199,2758C199,2751 185,2772 169,2805C152,2838 141,2858 144,2849C146,2840 158,2802 169,2765C193,2689 196,2654 174,2715C166,2737 125,2837 82,2937L5,3120L2,2939L0,2759L72,2667C160,2555 200,2482 235,2365C292,2176 299,2166 618,1812C755,1660 882,1538 1017,1431C1052,1403 1062,1399 1075,1410C1096,1427 1094,1446 1067,1483C1054,1501 1008,1583 965,1665C923,1748 867,1841 841,1872C758,1976 750,2003 770,2111C779,2159 778,2167 760,2190C704,2258 680,2305 680,2344C680,2410 661,2510 641,2549C630,2569 599,2605 571,2628C542,2652 497,2703 471,2741C423,2809 240,3009 252,2980C293,2885 311,2837 307,2833C304,2831 287,2865 269,2909C238,2986 230,2995 128,3088C69,3141 16,3186 10,3188C5,3190 0,3183 0,3172ZM391,2671C432,2512 460,2416 494,2315C498,2304 492,2311 482,2330C443,2399 319,2820 320,2878C321,2918 344,2851 391,2671ZM559,2536C571,2487 578,2445 576,2443C572,2439 530,2607 530,2625C530,2648 540,2616 559,2536ZM337,2578C334,2570 331,2573 331,2584C330,2595 333,2601 336,2597C339,2594 340,2585 337,2578ZM368,2480C368,2472 362,2481 355,2500C348,2519 342,2542 342,2550C342,2558 348,2549 355,2530C362,2511 368,2488 368,2480ZM389,2415C389,2410 385,2412 380,2420C375,2428 371,2442 371,2450C371,2466 388,2434 389,2415ZM469,2303C481,2279 488,2260 485,2260C480,2260 440,2335 440,2346C440,2357 446,2348 469,2303ZM656,2187C669,2147 694,2096 710,2073C728,2049 746,2004 755,1963C783,1842 815,1771 930,1578C963,1521 947,1532 895,1602C830,1689 796,1760 759,1887C742,1946 713,2022 694,2056C676,2089 652,2147 642,2186C631,2224 619,2264 615,2275C609,2293 609,2294 620,2277C626,2267 642,2227 656,2187Z" style="fill:rgb(114,113,113);fill-rule:nonzero;"/>
        </g>
        <g transform="matrix(0.347943,-0.024253,-0.024253,-0.347943,1519.91,1844.51)">
            <path d="M0,2720C0,2712 25,2678 56,2645L111,2585L64,2650C3,2734 0,2737 0,2720Z" style="fill:rgb(114,113,113);fill-rule:nonzero;"/>
        </g>
        <g transform="matrix(0.347943,-0.024253,-0.024253,-0.347943,1519.91,1844.51)">
            <path d="M0,2640C0,2623 7,2596 15,2580C30,2552 44,2503 145,2125C175,2014 202,1915 205,1905C209,1892 206,1894 197,1910C189,1924 161,2009 136,2100C71,2331 19,2490 9,2490C4,2490 0,2385 0,2256L0,2022L35,1992C54,1975 98,1942 132,1919C313,1797 629,1535 623,1511C622,1507 626,1503 633,1503C668,1500 826,1432 982,1351C1079,1301 1155,1260 1151,1260C1128,1260 1038,1299 885,1375C714,1460 617,1492 343,1554C304,1563 219,1591 153,1616C88,1641 27,1664 18,1667C2,1672 0,1664 0,1593L0,1514L117,1486C255,1452 340,1420 387,1384C406,1370 456,1342 498,1322C559,1293 570,1285 551,1282C505,1275 461,1291 394,1342C314,1401 249,1432 148,1459C108,1469 64,1481 50,1485C36,1489 63,1468 109,1438C202,1379 310,1293 310,1279C310,1259 251,1285 175,1340C90,1400 14,1450 5,1450C2,1450 0,1439 0,1426C0,1407 12,1395 57,1369C121,1333 116,1317 51,1349C29,1361 8,1370 5,1370C2,1370 0,1336 0,1293L0,1217L208,1223C322,1227 568,1232 755,1235C942,1239 1133,1246 1180,1251C1227,1257 1418,1262 1605,1261C1868,1261 1939,1264 1920,1272C1906,1279 1840,1315 1773,1352C1647,1423 1627,1439 1526,1554C1464,1625 1214,1850 1197,1850C1191,1850 1191,1845 1197,1838C1254,1766 1299,1696 1293,1687C1286,1676 1289,1673 1162,1828C1116,1884 1051,1953 1017,1982C924,2060 846,2133 836,2150C826,2165 940,2079 999,2026L1033,1995L1013,2030C948,2142 828,2355 796,2416C768,2470 751,2491 724,2503C678,2525 677,2525 694,2491C702,2476 712,2432 716,2394C723,2320 734,2292 785,2218C816,2174 817,2169 808,2121C802,2088 803,2057 810,2031C829,1959 953,1795 1034,1734C1056,1717 1104,1682 1140,1657C1176,1631 1252,1574 1309,1530C1384,1473 1463,1426 1589,1363C1685,1315 1758,1274 1752,1272C1746,1270 1719,1280 1692,1294C1664,1308 1584,1342 1513,1371C1443,1399 1338,1450 1280,1485C1222,1519 1150,1560 1120,1575C1069,1601 1066,1601 1085,1581C1096,1568 1138,1536 1178,1509C1219,1482 1248,1460 1243,1460C1239,1460 1207,1470 1173,1482C1109,1505 1079,1500 1115,1473C1154,1443 1285,1386 1419,1339L1555,1292L1285,1284L1245,1320C1145,1409 1142,1410 1183,1354C1219,1303 1228,1280 1212,1280C1196,1280 937,1471 844,1551C795,1593 723,1663 684,1706C646,1749 551,1852 472,1935C324,2090 270,2161 251,2220L240,2255L245,2220C253,2163 330,2026 408,1927C505,1805 507,1799 415,1895C354,1959 329,1997 285,2085C255,2146 228,2213 225,2235C215,2296 173,2424 146,2478C124,2522 15,2670 4,2670C2,2670 0,2656 0,2640ZM170,2374C182,2338 190,2306 187,2304C184,2301 175,2323 166,2354C157,2384 147,2416 144,2425C141,2433 140,2440 143,2440C146,2440 158,2410 170,2374ZM624,1433C707,1397 804,1360 840,1350C876,1340 925,1322 950,1311C999,1288 993,1289 877,1320C771,1349 749,1341 841,1307L915,1280L863,1284C825,1288 790,1301 742,1329C705,1351 616,1394 545,1426C473,1457 406,1489 395,1497C346,1533 481,1495 624,1433ZM395,1301C428,1285 447,1271 438,1271C419,1270 310,1316 310,1324C310,1336 338,1329 395,1301Z" style="fill:rgb(114,113,113);fill-rule:nonzero;"/>
        </g>
        <g transform="matrix(0.347943,-0.024253,-0.024253,-0.347943,1519.91,1844.51)">
            <path d="M1680,2372C1697,2344 1714,2320 1716,2320C1725,2320 1681,2397 1664,2411C1655,2418 1662,2401 1680,2372Z" style="fill:rgb(114,113,113);fill-rule:nonzero;"/>
        </g>
        <g transform="matrix(0.347943,-0.024253,-0.024253,-0.347943,1519.91,1844.51)">
            <path d="M231,2274C231,2263 234,2260 237,2268C240,2275 239,2284 236,2287C233,2291 230,2285 231,2274Z" style="fill:rgb(114,113,113);fill-rule:nonzero;"/>
        </g>
        <g transform="matrix(0.347943,-0.024253,-0.024253,-0.347943,1519.91,1844.51)">
            <path d="M1099,1972C1166,1896 1189,1874 1172,1906C1166,1917 1133,1952 1099,1985L1036,2045L1099,1972Z" style="fill:rgb(114,113,113);fill-rule:nonzero;"/>
        </g>
        <g transform="matrix(0.347943,-0.024253,-0.024253,-0.347943,1519.91,1844.51)">
            <path d="M0,1931C0,1883 2,1880 63,1827C217,1693 370,1593 503,1541C593,1505 620,1501 570,1531C551,1543 535,1551 535,1549C535,1535 435,1619 411,1653C373,1707 344,1734 240,1805C193,1837 120,1890 78,1922L0,1981L0,1931Z" style="fill:rgb(114,113,113);fill-rule:nonzero;"/>
        </g>
        <g transform="matrix(0.347943,-0.024253,-0.024253,-0.347943,1519.91,1844.51)">
            <path d="M0,1842L0,1710L38,1691C79,1671 317,1587 365,1576C382,1573 361,1588 315,1612C236,1654 156,1711 53,1798L0,1842Z" style="fill:rgb(114,113,113);fill-rule:nonzero;"/>
        </g>
        <g transform="matrix(0.347943,-0.024253,-0.024253,-0.347943,1519.91,1844.51)">
            <path d="M484,1601C506,1579 526,1563 529,1565C535,1572 490,1619 465,1632C454,1638 463,1624 484,1601Z" style="fill:rgb(114,113,113);fill-rule:nonzero;"/>
        </g>
        <g transform="matrix(0.347943,-0.024253,-0.024253,-0.347943,1519.91,1844.51)">
            <path d="M2542,1604C2559,1584 2620,1545 2620,1554C2620,1557 2599,1574 2573,1591C2546,1609 2533,1615 2542,1604Z" style="fill:rgb(114,113,113);fill-rule:nonzero;"/>
        </g>
        <g transform="matrix(0.347943,-0.024253,-0.024253,-0.347943,1519.91,1844.51)">
            <path d="M1115,1230L1045,1224L1137,1222C1189,1221 1231,1224 1235,1230C1242,1241 1230,1241 1115,1230Z" style="fill:rgb(114,113,113);fill-rule:nonzero;"/>
        </g>
        <g transform="matrix(0.347844,-0.0256232,-0.0256232,-0.347844,651.736,1939.61)">
            <path d="M3420,1200L3265,1195L3515,1188C3653,1183 4070,1180 4443,1180C5038,1180 5120,1182 5120,1195C5120,1208 5028,1210 4348,1208C3923,1207 3505,1203 3420,1200Z" style="fill:rgb(114,113,113);fill-rule:nonzero;"/>
        </g>
        <g transform="matrix(0.347943,-0.024253,-0.024253,-0.347943,1519.91,1844.51)">
            <path d="M0,1160C0,1148 396,1148 555,1160C626,1165 559,1167 328,1168C115,1169 0,1166 0,1160Z" style="fill:rgb(114,113,113);fill-rule:nonzero;"/>
        </g>
        <g transform="matrix(0.347943,-0.024253,-0.024253,-0.347943,1678.24,1696.3)">
            <path d="M1465,849C1492.36,843.339 1601.62,840.571 1707.43,840.486C1825.9,840.392 1940.04,843.661 1930,850C1921,856 1813,859 1670,859C1513,858 1439,855 1465,849Z" style="fill:rgb(114,113,113);fill-rule:nonzero;"/>
        </g>
        <g transform="matrix(0.347943,-0.024253,-0.024253,-0.347943,1501.96,1605.15)">
            <path d="M2520,520C2520,515 2534,513 2553,517C2598,525 2600,530 2557,530C2537,530 2520,526 2520,520Z" style="fill:rgb(114,113,113);fill-rule:nonzero;"/>
        </g>
        <g transform="matrix(0.347943,-0.024253,-0.024253,-0.347943,1074.31,1589.73)">
            <path d="M2540,380C2506,373 2506,373 2535,372C2552,372 2588,375 2615,380L2665,387L2620,387C2595,387 2559,384 2540,380Z" style="fill:rgb(114,113,113);fill-rule:nonzero;"/>
        </g>
    </g>
    <g transform="matrix(-0.0497395,-0.0303908,-0.0318306,0.052096,2310.75,826.546)">
        <path d="M4536.78,3497.22C4489.78,3457.22 3842,3023 3755,2973C3717,2950 3600,2889 3495,2835C3391,2782 3240,2696 3161,2643C3082,2591 2954,2518 2876,2480C2753,2421 2723,2402 2645,2330C2532,2227 2491,2198 2376,2145C2301,2110 2271,2089 2224,2039C2041,1845 1948,1782 1748,1716C1622,1675 1555,1645 1468,1592C1373,1533 1305.28,1496.74 1202.28,1458.74C1110.05,1398.36 1014.19,1350.35 1143.18,1383.35C1210.18,1400.35 1388,1504 1520,1570C1622,1621 1745,1677 1793,1696C1943,1754 2066,1837 2213,1979C2276,2041 2325,2078 2387,2111C2476,2159 2537,2202 2680,2320C2731,2363 2807,2412 2874,2447C2935,2478 3045,2544 3120,2594C3281,2704 3313,2722 3540,2837C3636,2886 3751,2948 3795,2974C3866,3017 4018.6,3119.83 4031.6,3134.83C4034.6,3137.83 4686.26,3567.66 4720.26,3593.66C4773.26,3634.66 5433.22,4059.08 5421.22,4058.08C5419.22,4057.08 4555.78,3514.22 4536.78,3497.22Z" style="fill:rgb(114,113,113);fill-rule:nonzero;"/>
    </g>
    <g transform="matrix(0.058167,0.0332544,0.0332544,-0.058167,1775.56,955.836)">
        <path d="M4120,3219C4073,3179 3842,3023 3755,2973C3717,2950 3600,2889 3495,2835C3391,2782 3240,2696 3161,2643C3082,2591 2954,2518 2876,2480C2753,2421 2723,2402 2645,2330C2532,2227 2491,2198 2376,2145C2301,2110 2271,2089 2224,2039C2041,1845 1948,1782 1748,1716C1622,1675 1555,1645 1468,1592C1373,1533 1309,1502 1206,1464C1098,1425 1112,1421 1241,1454C1308,1471 1388,1504 1520,1570C1622,1621 1745,1677 1793,1696C1943,1754 2066,1837 2213,1979C2276,2041 2325,2078 2387,2111C2476,2159 2537,2202 2680,2320C2731,2363 2807,2412 2874,2447C2935,2478 3045,2544 3120,2594C3281,2704 3313,2722 3540,2837C3636,2886 3751,2948 3795,2974C3866,3017 4007,3115 4020,3130C4023,3133 4053,3157 4087,3183C4140,3224 4170,3251 4158,3250C4156,3249 4139,3236 4120,3219Z" style="fill:rgb(114,113,113);fill-rule:nonzero;"/>
    </g>
    <g transform="matrix(0.1,0,0,-0.1,1532.89,1075.82)">
        <path d="M2510,4037C2510,3989 2504,3974 2455,3899C2396,3809 2296,3625 2088,3225C1711,2500 1739,2559 1670,2325L1632,2195L1591,2198C1569,2199 1549,2196 1545,2190C1541,2184 1554,2180 1577,2180C1613,2180 1640,2166 1640,2148C1640,2144 1565,2139 1473,2137L177.409,2127.77L-50.331,2129.09L-192.312,2132.47L541.109,2128.25L1476,2132L1648,2130L1680,2050C1698,2006 1727,1945 1746,1914C1765,1883 1780,1854 1780,1849C1780,1844 1768,1837 1754,1834C1738,1830 1733,1825 1740,1820C1753,1812 1736,1795 1705,1786C1694,1783 1937,1782 2245,1785C2553,1787 2903,1785 3023,1782C3142,1778 3240,1778 3240,1781C3240,1798 3191,1802 2995,1803L2785,1804L2987,1809C3098,1812 3192,1818 3196,1823C3200,1827 3197,1830 3190,1830C3183,1830 3169,1837 3159,1846C3143,1860 3146,1867 3205,1944C3239,1990 3280,2050 3296,2079L3325,2130L3983,2129C4346,2129 5256.85,2119.21 5260.85,2122.21C5263.85,2125.21 4602,2140 4538,2140C4440,2140 4365,2145 4365,2145L3851,2142C3568,2141 3335,2142 3332,2145C3329,2148 3340,2167 3357,2188C3384,2221 3393,2226 3446,2231C3530,2239 3504,2242 3347,2241C3271,2240 3204,2243 3197,2247C3191,2251 3116,2254 3031,2254L2877,2255L2858,2310C2823,2411 2770,2630 2745,2777C2713,2960 2714,2979 2749,2860C2784,2740 2845,2593 2901,2493C2948,2410 3070,2277 3108,2268C3120,2264 3130,2263 3130,2264C3130,2266 3108,2281 3081,2299C2992,2356 2915,2468 2833,2659C2809,2717 2774,2813 2757,2872C2740,2931 2723,2977 2720,2975C2716,2972 2713,2983 2713,2998C2713,3035 2677,3256 2673,3243C2668,3230 2714,2893 2741,2740C2765,2603 2810,2423 2844,2323L2869,2250L2532,2250L2525,2280C2521,2297 2521,2332 2524,2358C2548,2548 2572,3128 2572,3515C2572,3700 2576,3785 2582,3765C2587,3749 2591,3720 2591,3703C2592,3683 2596,3673 2602,3676C2609,3680 2610,3667 2606,3639C2602,3606 2603,3600 2610,3615C2618,3630 2619,3625 2616,3590C2612,3559 2614,3551 2620,3565C2628,3584 2629,3583 2630,3560C2631,3546 2634,3540 2636,3547C2639,3553 2625,3629 2606,3716C2586,3803 2572,3875 2574,3878C2577,3880 2586,3868 2595,3850C2604,3833 2646,3763 2689,3697C2917,3338 3090,3033 3266,2677C3341,2524 3405,2401 3407,2403C3413,2410 3187,2869 3100,3025C2997,3210 2858,3445 2727,3655C2672,3743 2607,3853 2582,3900C2542,3976 2538,3990 2542,4037C2546,4083 2544,4090 2528,4090C2513,4090 2510,4082 2510,4037ZM2485,3765C2448,3513 2360,3289 2164,2948C2075,2793 1859,2462 1810,2407C1774,2366 1692,2305 1684,2313C1681,2316 1697,2373 1719,2441C1760,2562 1815,2675 2059,3140C2122,3258 2220,3445 2277,3555C2335,3665 2408,3797 2439,3847C2493,3936 2495,3938 2498,3907C2500,3890 2494,3826 2485,3765ZM2549,3415C2550,2969 2539,2623 2519,2437C2513,2378 2507,2331 2506,2332C2503,2337 2518,3275 2526,3605C2537,4043 2549,3947 2549,3415ZM2567,3818C2564,3810 2561,3813 2561,3824C2560,3835 2563,3841 2566,3837C2569,3834 2570,3825 2567,3818ZM2497,3698C2495,3685 2493,3693 2493,3715C2492,3737 2494,3747 2497,3738C2499,3728 2499,3710 2497,3698ZM2485,3422C2481,3349 2476,3291 2474,3293C2471,3295 2473,3371 2477,3461C2481,3551 2486,3609 2488,3590C2490,3571 2489,3495 2485,3422ZM2460,3403C2431,2959 2339,2372 2299,2376C2291,2377 2239,2387 2183,2399C2075,2421 1910,2427 1852,2411L1819,2401L1848,2438C1887,2487 2072,2770 2144,2890C2235,3041 2381,3345 2425,3472C2447,3536 2466,3587 2468,3585C2470,3583 2467,3501 2460,3403ZM2497,3263C2494,3253 2492,3259 2492,3275C2492,3292 2494,3299 2497,3293C2499,3286 2499,3272 2497,3263ZM2461,2920C2455,2779 2455,2597 2460,2466C2468,2246 2467,2220 2447,2220C2440,2220 2438,2280 2442,2408C2445,2511 2443,2568 2439,2535C2435,2502 2432,2441 2431,2398L2430,2322L2377,2343L2324,2363L2361,2544C2402,2748 2433,2951 2452,3150C2463,3269 2465,3277 2468,3220C2470,3184 2467,3049 2461,2920ZM2194,2385C2254,2372 2305,2358 2307,2356C2312,2351 2280,2228 2271,2219C2268,2215 2127,2209 1958,2205C1705,2200 1651,2201 1654,2212C1656,2219 1661,2237 1664,2251C1670,2280 1802,2386 1849,2400C1908,2418 2082,2410 2194,2385ZM2388,2325C2428,2308 2430,2306 2430,2264C2430,2224 2428,2220 2406,2220C2393,2220 2361,2217 2335,2213L2287,2207L2294,2240C2309,2317 2322,2351 2333,2347C2340,2344 2364,2334 2388,2325ZM3340,2224C3340,2220 3331,2202 3319,2184C3303,2158 3292,2150 3269,2150C3242,2150 3240,2152 3240,2190L3240,2230L3290,2230C3318,2230 3340,2227 3340,2224ZM3218,2183L3215,2145L3130,2129C2959,2097 2974,2096 2957,2142C2945,2172 2937,2180 2923,2177C2913,2174 2816,2168 2708,2164L2510,2158L2510,2210L2673,2213C2762,2214 2922,2217 3028,2218L3221,2220L3218,2183ZM2460,2167C2460,2156 2391,2152 2101,2146C1766,2140 1709,2141 1670,2158C1655,2165 1923,2174 2273,2178C2424,2180 2460,2177 2460,2167ZM2924,2143C2926,2133 2931,2115 2935,2103C2938,2090 2937,2080 2932,2080C2926,2080 2919,2091 2916,2105C2911,2126 2904,2130 2875,2130C2844,2130 2840,2127 2839,2103C2837,2079 2837,2078 2833,2098C2830,2112 2821,2120 2809,2120C2795,2120 2790,2113 2790,2090C2790,2065 2786,2060 2766,2060C2748,2060 2741,2067 2736,2091C2731,2116 2726,2121 2708,2118C2691,2116 2684,2107 2682,2088C2678,2053 2660,2051 2660,2085C2660,2105 2655,2110 2635,2110C2614,2110 2610,2105 2610,2080C2610,2062 2605,2050 2597,2050C2588,2050 2585,2060 2588,2080C2592,2107 2589,2110 2567,2110C2526,2110 2510,2100 2510,2074C2510,2057 2504,2050 2490,2050C2474,2050 2470,2057 2470,2080L2470,2110L2340,2110L2338,2078L2337,2045L2333,2078C2330,2102 2324,2110 2309,2110C2295,2110 2290,2103 2289,2083L2287,2055L2283,2083C2279,2107 2275,2110 2239,2110C2204,2110 2200,2108 2200,2084C2200,2062 2196,2059 2173,2062C2150,2064 2144,2071 2142,2096L2139,2127L2237,2133C2291,2137 2416,2140 2515,2141C2663,2142 2849,2150 2907,2158C2913,2159 2921,2152 2924,2143ZM2959,2090C2959,2082 2952,2091 2945,2110C2927,2156 2928,2174 2945,2135C2953,2119 2959,2098 2959,2090ZM2020,2123C2020,2118 2045,2117 2075,2118C2124,2121 2130,2120 2130,2102C2130,2085 2124,2083 2083,2085C2056,2087 2033,2089 2030,2090C2027,2091 2016,2092 2005,2091C1994,2090 1938,2098 1880,2109L1775,2128L1898,2129C1965,2130 2020,2127 2020,2123ZM1845,2080C2054,2042 2206,2030 2465,2030C2722,2030 2863,2041 3091,2080C3225,2103 3249,2105 3234,2090C3228,2084 3180,2070 3128,2060C2800,1993 2273,1982 1967,2036C1862,2054 1719,2089 1700,2102C1689,2109 1692,2110 1710,2106C1724,2102 1785,2091 1845,2080ZM2433,2057C2464,2053 2464,2053 2428,2052C2393,2050 2390,2052 2391,2078C2392,2100 2393,2101 2397,2083C2400,2067 2410,2060 2433,2057ZM3201,1966C3173,1926 3166,1922 3118,1916C2918,1893 2770,1886 2520,1886C2219,1886 2093,1899 1900,1949L1825,1969L1941,1964C2284,1947 2775,1961 3050,1994C3108,2001 3172,2008 3193,2009L3231,2010L3201,1966ZM1906,1930C2128,1874 2218,1867 2670,1873C2893,1876 3086,1882 3099,1886C3117,1891 3122,1890 3118,1879C3114,1867 3041,1865 2684,1862C2234,1859 2091,1866 1937,1901C1849,1920 1780,1944 1780,1954C1780,1962 1776,1963 1906,1930ZM2018,1803C2003,1801 1976,1801 1958,1803C1940,1805 1952,1807 1985,1807C2018,1807 2033,1805 2018,1803ZM2303,1803C2257,1801 2183,1801 2138,1803C2092,1804 2129,1806 2220,1806C2311,1806 2348,1804 2303,1803Z" style="fill:rgb(114,113,113);fill-rule:nonzero;"/>
        <path d="M2621,3514C2621,3503 2624,3500 2627,3508C2630,3515 2629,3524 2626,3527C2623,3531 2620,3525 2621,3514Z" style="fill:rgb(114,113,113);fill-rule:nonzero;"/>
        <path d="M2641,3521C2640,3514 2653,3449 2669,3376C2686,3304 2703,3225 2708,3200C2715,3170 2718,3163 2720,3180C2721,3195 2731,3175 2746,3125C2845,2809 2876,2723 2945,2585C3014,2446 3137,2260 3161,2260C3166,2260 3138,2302 3100,2353C2986,2502 2906,2674 2799,3003C2748,3158 2692,3341 2674,3410C2656,3479 2641,3529 2641,3521Z" style="fill:rgb(114,113,113);fill-rule:nonzero;"/>
        <path d="M2583,3465C2583,3438 2585,3427 2587,3443C2589,3458 2589,3480 2587,3493C2585,3505 2583,3493 2583,3465Z" style="fill:rgb(114,113,113);fill-rule:nonzero;"/>
        <path d="M2632,3460C2632,3446 2634,3441 2637,3448C2639,3454 2639,3466 2637,3473C2634,3479 2632,3474 2632,3460Z" style="fill:rgb(114,113,113);fill-rule:nonzero;"/>
        <path d="M2642,3405C2642,3389 2644,3383 2647,3393C2649,3402 2649,3416 2647,3423C2644,3429 2642,3422 2642,3405Z" style="fill:rgb(114,113,113);fill-rule:nonzero;"/>
        <path d="M2596,3345C2611,3100 2611,3009 2596,2880C2587,2806 2571,2662 2560,2560C2549,2458 2538,2353 2534,2325C2530,2298 2530,2277 2533,2280C2547,2293 2620,2985 2619,3097C2619,3145 2612,3237 2605,3300C2597,3363 2593,3384 2596,3345Z" style="fill:rgb(114,113,113);fill-rule:nonzero;"/>
        <path d="M2652,3345C2652,3329 2654,3323 2657,3333C2659,3342 2659,3356 2657,3363C2654,3369 2652,3362 2652,3345Z" style="fill:rgb(114,113,113);fill-rule:nonzero;"/>
        <path d="M2662,3285C2662,3269 2664,3263 2667,3273C2669,3282 2669,3296 2667,3303C2664,3309 2662,3302 2662,3285Z" style="fill:rgb(114,113,113);fill-rule:nonzero;"/>
        <path d="M2582,3200C2582,3186 2584,3181 2587,3188C2589,3194 2589,3206 2587,3213C2584,3219 2582,3214 2582,3200Z" style="fill:rgb(114,113,113);fill-rule:nonzero;"/>
        <path d="M2722,3130C2722,3116 2724,3111 2727,3118C2729,3124 2729,3136 2727,3143C2724,3149 2722,3144 2722,3130Z" style="fill:rgb(114,113,113);fill-rule:nonzero;"/>
        <path d="M2731,3079C2731,3066 2735,3046 2740,3035C2747,3021 2748,3027 2743,3055C2736,3101 2730,3114 2731,3079Z" style="fill:rgb(114,113,113);fill-rule:nonzero;"/>
        <path d="M2751,2994C2751,2983 2754,2980 2757,2988C2760,2995 2759,3004 2756,3007C2753,3011 2750,3005 2751,2994Z" style="fill:rgb(114,113,113);fill-rule:nonzero;"/>
        <path d="M3410,2385C3410,2372 3462,2278 3466,2283C3472,2288 3423,2390 3415,2390C3412,2390 3410,2388 3410,2385Z" style="fill:rgb(114,113,113);fill-rule:nonzero;"/>
        <path d="M1408,1953C1431,1951 1467,1951 1488,1953C1508,1955 1489,1957 1445,1957C1401,1957 1384,1955 1408,1953Z" style="fill:rgb(114,113,113);fill-rule:nonzero;"/>
        <path d="M3573,1943C3644,1941 3756,1941 3823,1943C3890,1944 3833,1946 3695,1946C3558,1946 3503,1944 3573,1943Z" style="fill:rgb(114,113,113);fill-rule:nonzero;"/>
        <path d="M1348,1913C1365,1911 1395,1911 1413,1913C1430,1915 1416,1917 1380,1917C1344,1917 1330,1915 1348,1913Z" style="fill:rgb(114,113,113);fill-rule:nonzero;"/>
        <path d="M3388,1783C3411,1781 3449,1781 3473,1783C3496,1785 3477,1787 3430,1787C3383,1787 3364,1785 3388,1783Z" style="fill:rgb(114,113,113);fill-rule:nonzero;"/>
        <path d="M1555,1760C1430,1756 1484,1753 1800,1750C2255,1746 3273,1750 3279,1756C3281,1758 2943,1760 2528,1760C2112,1760 1760,1761 1744,1763C1728,1765 1643,1764 1555,1760Z" style="fill:rgb(114,113,113);fill-rule:nonzero;"/>
        <path d="M1720,1720C1684,1716 1842,1712 2070,1710C2384,1707 2453,1705 2355,1699C2284,1696 2091,1692 1927,1691C1731,1690 1631,1687 1635,1680C1639,1674 1790,1670 2056,1670C2417,1670 2470,1668 2470,1655C2470,1642 2444,1640 2303,1639C2203,1638 2145,1635 2160,1630C2174,1626 2249,1622 2328,1621L2470,1620L2470,1591C2470,1563 2469,1563 2423,1567C2396,1570 2362,1576 2346,1581C2309,1593 1838,1592 1865,1580C1876,1575 1980,1571 2095,1571C2251,1570 2315,1566 2345,1555C2367,1547 2406,1541 2433,1540C2476,1540 2480,1538 2480,1515L2480,1491L2298,1494C2111,1498 2114,1497 2393,1475C2469,1468 2480,1465 2480,1449C2480,1431 2470,1430 2344,1430C2257,1430 2211,1426 2215,1420C2219,1414 2275,1410 2351,1410C2473,1410 2480,1409 2480,1390C2480,1371 2473,1370 2338,1368L2195,1367L2330,1361C2404,1357 2471,1351 2478,1347C2484,1342 2490,1328 2490,1314C2490,1293 2485,1290 2453,1289L2415,1288L2453,1278C2479,1271 2502,1271 2523,1278L2555,1288L2528,1289C2505,1290 2500,1295 2500,1315C2500,1344 2526,1360 2574,1360C2594,1360 2610,1365 2610,1371C2610,1379 2592,1381 2550,1377C2495,1371 2490,1372 2490,1390C2490,1409 2497,1410 2623,1410C2712,1410 2750,1413 2740,1420C2732,1425 2674,1430 2613,1430C2509,1430 2500,1431 2500,1449C2500,1475 2547,1480 2935,1488C3111,1493 3244,1497 3230,1498C3152,1505 2624,1503 2568,1496L2500,1487L2500,1514C2500,1538 2503,1540 2545,1540C2570,1540 2607,1547 2627,1555C2652,1566 2704,1570 2804,1572C2925,1573 2935,1574 2875,1580C2755,1593 2643,1591 2583,1575C2505,1554 2500,1555 2500,1590L2500,1620L2695,1620C2818,1620 2890,1624 2890,1630C2890,1636 2818,1640 2695,1640C2528,1640 2500,1642 2500,1655C2500,1668 2553,1670 2914,1670C3180,1670 3331,1674 3335,1680C3339,1687 3226,1690 3003,1691C2817,1692 2625,1695 2575,1699C2517,1704 2632,1707 2893,1708C3142,1709 3300,1714 3300,1719C3300,1730 1830,1730 1720,1720Z" style="fill:rgb(114,113,113);fill-rule:nonzero;"/>
        <path d="M3128,1643C3167,1641 3233,1641 3273,1643C3312,1644 3280,1646 3200,1646C3120,1646 3088,1644 3128,1643Z" style="fill:rgb(114,113,113);fill-rule:nonzero;"/>
        <path d="M1142,1623C1289,1621 1532,1621 1682,1623C1832,1624 1712,1625 1415,1625C1118,1625 995,1624 1142,1623Z" style="fill:rgb(114,113,113);fill-rule:nonzero;"/>
        <path d="M3513,1623C3666,1621 3914,1621 4063,1623C4213,1624 4088,1625 3785,1625C3483,1625 3360,1624 3513,1623Z" style="fill:rgb(114,113,113);fill-rule:nonzero;"/>
        <path d="M3380,1560C3531,1550 3672,1550 3640,1559C3626,1563 3536,1567 3440,1567C3270,1567 3268,1567 3380,1560Z" style="fill:rgb(114,113,113);fill-rule:nonzero;"/>
        <path d="M3978,1563C4007,1561 4052,1561 4078,1563C4104,1565 4080,1566 4025,1566C3970,1566 3949,1565 3978,1563Z" style="fill:rgb(114,113,113);fill-rule:nonzero;"/>
        <path d="M880,1530L635,1524L865,1524C992,1523 1205,1526 1340,1530L1585,1536L1355,1536C1229,1536 1015,1533 880,1530Z" style="fill:rgb(114,113,113);fill-rule:nonzero;"/>
        <path d="M1613,1533C1628,1531 1652,1531 1668,1533C1683,1535 1670,1537 1640,1537C1610,1537 1597,1535 1613,1533Z" style="fill:rgb(114,113,113);fill-rule:nonzero;"/>
        <path d="M1983,1523C2036,1521 2124,1521 2178,1523C2231,1524 2187,1526 2080,1526C1973,1526 1929,1524 1983,1523Z" style="fill:rgb(114,113,113);fill-rule:nonzero;"/>
        <path d="M4063,1473C4133,1471 4247,1471 4318,1473C4388,1474 4330,1476 4190,1476C4050,1476 3992,1474 4063,1473Z" style="fill:rgb(114,113,113);fill-rule:nonzero;"/>
        <path d="M1616,1438C1666,1432 1785,1432 1931,1438L2165,1447L1850,1447C1603,1447 1552,1445 1616,1438Z" style="fill:rgb(114,113,113);fill-rule:nonzero;"/>
        <path d="M3200,1440L2825,1435L3255,1434C3492,1433 3732,1436 3790,1440C3890,1446 3887,1447 3735,1446C3647,1446 3406,1443 3200,1440Z" style="fill:rgb(114,113,113);fill-rule:nonzero;"/>
        <path d="M1833,1343C1892,1341 1988,1341 2048,1343C2107,1344 2058,1346 1940,1346C1822,1346 1773,1344 1833,1343Z" style="fill:rgb(114,113,113);fill-rule:nonzero;"/>
        <path d="M1028,1333C1145,1331 1334,1331 1448,1333C1562,1334 1466,1335 1235,1335C1004,1335 911,1334 1028,1333Z" style="fill:rgb(114,113,113);fill-rule:nonzero;"/>
        <path d="M3758,1333C3837,1331 3963,1331 4038,1333C4113,1334 4049,1336 3895,1336C3741,1336 3679,1334 3758,1333Z" style="fill:rgb(114,113,113);fill-rule:nonzero;"/>
        <path d="M2173,1303C2199,1301 2240,1301 2263,1303C2286,1305 2265,1306 2215,1306C2166,1306 2147,1305 2173,1303Z" style="fill:rgb(114,113,113);fill-rule:nonzero;"/>
        <path d="M2720,1300C2739,1288 3567,1288 3595,1300C3607,1305 3423,1309 3160,1309C2863,1310 2710,1306 2720,1300Z" style="fill:rgb(114,113,113);fill-rule:nonzero;"/>
        <path d="M2440,1220C2430,1212 2445,1211 2490,1216C2526,1220 2557,1224 2559,1226C2569,1235 2453,1229 2440,1220Z" style="fill:rgb(114,113,113);fill-rule:nonzero;"/>
        <path d="M2415,1160C2333,1151 2780,1151 2950,1159C3057,1165 3021,1167 2780,1167C2612,1167 2448,1164 2415,1160Z" style="fill:rgb(114,113,113);fill-rule:nonzero;"/>
    </g>
</svg>
